/* XPM */
static const char * filetext[] = {
"15 21 44 1",
" 	c None",
".	c #000000",
"+	c #070707",
"@	c #232323",
"#	c #2A2A2A",
"$	c #262626",
"%	c #252525",
"&	c #B1B1B1",
"*	c #D4D4D4",
"=	c #D0D0D0",
"-	c #BCBCBC",
";	c #B7B7B7",
">	c #9D9D9D",
",	c #FFFFFF",
"'	c #F7F7F7",
")	c #D6D6D6",
"!	c #DEDEDE",
"~	c #D8D8D8",
"{	c #838383",
"]	c #494949",
"^	c #F4F4F4",
"/	c #CACACA",
"(	c #E0E0E0",
"_	c #FAFAFA",
":	c #E7E7E7",
"<	c #474545",
"[	c #FEFEFE",
"}	c #A0A0A0",
"|	c #808080",
"1	c #777777",
"2	c #5C5C5C",
"3	c #121212",
"4	c #D3D3D3",
"5	c #757575",
"6	c #202020",
"7	c #1B1B1B",
"8	c #050505",
"9	c #F6F6F6",
"0	c #858585",
"a	c #EFEFEF",
"b	c #DFDFDF",
"c	c #BABABA",
"d	c #D5D5D5",
"e	c #2B2B2B",
"...........    ",
".+@#####$%@    ",
".@&****=-;>@   ",
".#*,,,,')!~{]  ",
".#*,,,,^/(_:{@ ",
".#*,<,<</([_~>@",
".#*,<,,</}||123",
".#*,<,,<4566678",
".#*,<,,<9/}}}07",
".#*,,,,,,abbbc%",
".#*,,,,,,,,,,*#",
".#*,,,,,,,,,,*#",
".#*,<,,,,<<<,*#",
".#*,<,,,,<,<,*#",
".#*,<,,,,<,<,*#",
".#*,<,,<,<<<,<#",
".#*,,,<<,,,,,*#",
".#*,,,,,,,,,,*#",
".#*,,,,,,,,,,*#",
".@&dddddddddd&@",
".+@eeeeeeeeee@+"};

