/* XPM */
static const char * neuraldis32_xpm[] = {
"32 32 598 2",
"  	c None",
". 	c #000000",
"+ 	c #515151",
"@ 	c #949494",
"# 	c #C8C8C8",
"$ 	c #EBEBEB",
"% 	c #FCFCFC",
"& 	c #838383",
"* 	c #EBEBDD",
"= 	c #3333FF",
"- 	c #0000FF",
"; 	c #FFFFD4",
"> 	c #E9CFF2",
", 	c #F7D8F0",
"' 	c #C0E2E0",
") 	c #0099FF",
"! 	c #0090FF",
"~ 	c #EAF5DD",
"{ 	c #E7E3E1",
"] 	c #616161",
"^ 	c #E7E7EB",
"/ 	c #E7E7EA",
"( 	c #EDEDCA",
"_ 	c #FFFFCD",
": 	c #8384E2",
"< 	c #A397EB",
"[ 	c #FFFFFF",
"} 	c #83CB8B",
"| 	c #B3D2AC",
"1 	c #FFF3FF",
"2 	c #824AEF",
"3 	c #7A4CE5",
"4 	c #FFF8C8",
"5 	c #D1CFD0",
"6 	c #E8EAEA",
"7 	c #EBE8E8",
"8 	c #FFFFD7",
"9 	c #D3D3CF",
"0 	c #D1D1D5",
"a 	c #D6D6D2",
"b 	c #FFFFC8",
"c 	c #A890FA",
"d 	c #BCEF98",
"e 	c #00C200",
"f 	c #00C600",
"g 	c #FFFFCB",
"h 	c #0100FF",
"i 	c #1010F8",
"j 	c #FFFFCA",
"k 	c #CED1D4",
"l 	c #CFD3D5",
"m 	c #FAC3C6",
"n 	c #FFDCDF",
"o 	c #8585A5",
"p 	c #D8D8CC",
"q 	c #EFEFCD",
"r 	c #D0D0D4",
"s 	c #D0D0D3",
"t 	c #F8F8CB",
"u 	c #FFFFC5",
"v 	c #FFFFDF",
"w 	c #CBDCBF",
"x 	c #00C500",
"y 	c #00C300",
"z 	c #FFEDE2",
"A 	c #FFFFD5",
"B 	c #E9E9CE",
"C 	c #D7DCD1",
"D 	c #FFF7BF",
"E 	c #00FFFF",
"F 	c #A5A5A5",
"G 	c #010101",
"H 	c #7978E2",
"I 	c #2928F5",
"J 	c #FDFBC9",
"K 	c #CFCDD2",
"L 	c #D1CFD1",
"M 	c #CFCED1",
"N 	c #CDCDD1",
"O 	c #D5CDD8",
"P 	c #FFD0FF",
"Q 	c #E5D1E5",
"R 	c #FDD1FD",
"S 	c #D0CDD4",
"T 	c #CECDD1",
"U 	c #D0CFD1",
"V 	c #DADCCE",
"W 	c #C08BD4",
"X 	c #49E6E6",
"Y 	c #948A8A",
"Z 	c #FFFFED",
"` 	c #FFFFD2",
" .	c #E8F2E0",
"..	c #8D9AF6",
"+.	c #FCFFDA",
"@.	c #D8E9EC",
"#.	c #DBEBEB",
"$.	c #D9E6E7",
"%.	c #DAEDEF",
"&.	c #D2E6E4",
"*.	c #DFEBF0",
"=.	c #E2E8EF",
"-.	c #E1E2E9",
";.	c #DEE8E9",
">.	c #D4DDDB",
",.	c #DAE4E6",
"'.	c #DAE7E8",
").	c #D9E5E7",
"!.	c #EAFCF1",
"~.	c #F5FFE5",
"{.	c #7D4EFF",
"].	c #FFECDC",
"^.	c #FFD6D6",
"/.	c #5E6061",
"(.	c #0E0E0E",
"_.	c #D8A182",
":.	c #F1E6EF",
"<.	c #BEB3B4",
"[.	c #D4AB8F",
"}.	c #FFFFFE",
"|.	c #C78471",
"1.	c #DFDBE0",
"2.	c #C7B1AC",
"3.	c #B6868C",
"4.	c #FAFFFF",
"5.	c #BA605E",
"6.	c #F0D9DA",
"7.	c #BACAC4",
"8.	c #B87C73",
"9.	c #A27A78",
"0.	c #F5F5F5",
"a.	c #DCC5CD",
"b.	c #AC7268",
"c.	c #F5FFFF",
"d.	c #B4754A",
"e.	c #DEE1C4",
"f.	c #EED9B5",
"g.	c #A07E73",
"h.	c #EBD0A4",
"i.	c #0A0B09",
"j.	c #454A83",
"k.	c #644300",
"l.	c #F3FFBD",
"m.	c #C05A5C",
"n.	c #B16B5D",
"o.	c #A0CBDF",
"p.	c #792A2C",
"q.	c #A3B6B8",
"r.	c #BB2E21",
"s.	c #B0473F",
"t.	c #ACFFC1",
"u.	c #780903",
"v.	c #B6A8A6",
"w.	c #AD9194",
"x.	c #9E3339",
"y.	c #C2E1FF",
"z.	c #6F241A",
"A.	c #88916B",
"B.	c #D7ACAF",
"C.	c #3C0100",
"D.	c #D1E5FE",
"E.	c #8D391B",
"F.	c #A79EA4",
"G.	c #A38683",
"H.	c #684026",
"I.	c #F3FFF1",
"J.	c #1F0046",
"K.	c #798083",
"L.	c #0000EB",
"M.	c #867CFF",
"N.	c #00619C",
"O.	c #E1695B",
"P.	c #6FC8E3",
"Q.	c #FFFFF5",
"R.	c #C4FAFF",
"S.	c #B5F6FF",
"T.	c #EFACBF",
"U.	c #51E38C",
"V.	c #B0D5E3",
"W.	c #D5DEFB",
"X.	c #DBF0FF",
"Y.	c #BBD8F7",
"Z.	c #629874",
"`.	c #BBD5C2",
" +	c #ABC7B8",
".+	c #EFFEFC",
"++	c #E2F8FF",
"@+	c #72A0DB",
"#+	c #80B1EE",
"$+	c #E9FCFF",
"%+	c #DEE3F9",
"&+	c #818AEB",
"*+	c #9886F3",
"=+	c #9A9DF9",
"-+	c #64D03B",
";+	c #E55E72",
">+	c #8AC5D8",
",+	c #C0C5C7",
"'+	c #FFE4DA",
")+	c #76AEBB",
"!+	c #8AAEB7",
"~+	c #FF7185",
"{+	c #4DEA5F",
"]+	c #9090D0",
"^+	c #DCDEE5",
"/+	c #B0C19D",
"(+	c #DCD6CF",
"_+	c #FFF4FC",
":+	c #E8E1CB",
"<+	c #779273",
"[+	c #9DA9D2",
"}+	c #A3B0CC",
"|+	c #C8C9C9",
"1+	c #E4D6C8",
"2+	c #DBD3C4",
"3+	c #FFFEB8",
"4+	c #302FE9",
"5+	c #0807FF",
"6+	c #7A7AFF",
"7+	c #6A6A4E",
"8+	c #FFFFBA",
"9+	c #FFFFDE",
"0+	c #F4FFFF",
"a+	c #D96E47",
"b+	c #3788AE",
"c+	c #FAF0ED",
"d+	c #FFFAF0",
"e+	c #7FCBD8",
"f+	c #B8849C",
"g+	c #478B7A",
"h+	c #C2C79B",
"i+	c #F7E8EC",
"j+	c #DEDEE9",
"k+	c #D7D6F8",
"l+	c #225742",
"m+	c #A3B0F4",
"n+	c #C9D8F9",
"o+	c #BBC5DA",
"p+	c #FBFEFF",
"q+	c #FFFFE6",
"r+	c #FFFFEE",
"s+	c #C3C384",
"t+	c #929284",
"u+	c #161619",
"v+	c #C3C3C9",
"w+	c #948F97",
"x+	c #C7C8D2",
"y+	c #14173B",
"z+	c #699D9C",
"A+	c #5DC68D",
"B+	c #F9D9E1",
"C+	c #5A202F",
"D+	c #3983C0",
"E+	c #A8C991",
"F+	c #000026",
"G+	c #D4FFE6",
"H+	c #B9B6E8",
"I+	c #F0DCEE",
"J+	c #A7AF7F",
"K+	c #9EB6CA",
"L+	c #8496C1",
"M+	c #D7D4C4",
"N+	c #B2B0A7",
"O+	c #A0D9D6",
"P+	c #A3ACAC",
"Q+	c #93D2D3",
"R+	c #C1CBCE",
"S+	c #0F0F15",
"T+	c #5D5D63",
"U+	c #A3A3A5",
"V+	c #D1D1D1",
"W+	c #A2A1A1",
"X+	c #D5D0CE",
"Y+	c #E2E8E7",
"Z+	c #857564",
"`+	c #D079FD",
" @	c #4DE6C0",
".@	c #389F2A",
"+@	c #1D945C",
"@@	c #ACC6A9",
"#@	c #D3E1FF",
"$@	c #8E9CCC",
"%@	c #8B5198",
"&@	c #9CD7B2",
"*@	c #BDF488",
"=@	c #6375C3",
"-@	c #C0B8F1",
";@	c #FFF1E8",
">@	c #E1E0D9",
",@	c #B3B9B9",
"'@	c #C3C2C2",
")@	c #FF0000",
"!@	c #CA9A9A",
"~@	c #EEF7F7",
"{@	c #333232",
"]@	c #6A6A6A",
"^@	c #AEAEAE",
"/@	c #B0AFAF",
"(@	c #BACCCB",
"_@	c #D6FCFF",
":@	c #65B968",
"<@	c #FED8E7",
"[@	c #2E3CA0",
"}@	c #D19FFF",
"|@	c #FFF4FE",
"1@	c #EEFFAB",
"2@	c #B9BE8B",
"3@	c #2AD23C",
"4@	c #DCFC92",
"5@	c #C090E4",
"6@	c #577FAC",
"7@	c #C2F5C6",
"8@	c #C0F99F",
"9@	c #FFEBFF",
"0@	c #EBD3EF",
"a@	c #B9B7C1",
"b@	c #B0EEEC",
"c@	c #DF5755",
"d@	c #AAECEB",
"e@	c #EAF3F3",
"f@	c #444343",
"g@	c #858585",
"h@	c #AAAAAA",
"i@	c #9D9D9D",
"j@	c #AFAEAE",
"k@	c #BACDCC",
"l@	c #FF5870",
"m@	c #850000",
"n@	c #FFE7E2",
"o@	c #ADB69D",
"p@	c #004B55",
"q@	c #8440ED",
"r@	c #7264E7",
"s@	c #8125F0",
"t@	c #A7CCB0",
"u@	c #A8BFFF",
"v@	c #A2D46F",
"w@	c #58C153",
"x@	c #A185C3",
"y@	c #98C6A3",
"z@	c #A0FF6C",
"A@	c #B0EE8D",
"B@	c #EAC4D9",
"C@	c #E3F1FF",
"D@	c #FF314E",
"E@	c #BAEEF3",
"F@	c #EEEDEA",
"G@	c #434242",
"H@	c #797979",
"I@	c #262626",
"J@	c #A9A9A9",
"K@	c #ECECEC",
"L@	c #AEADAD",
"M@	c #B7CCCA",
"N@	c #DAD9EC",
"O@	c #2DA864",
"P@	c #E4E1FD",
"Q@	c #FFAD9A",
"R@	c #228352",
"S@	c #FFFFB4",
"T@	c #FFFFF2",
"U@	c #9B39CE",
"V@	c #558A43",
"W@	c #E4B0FF",
"X@	c #6A99FF",
"Y@	c #C37994",
"Z@	c #68A1BE",
"`@	c #6F49F1",
" #	c #0519AA",
".#	c #4671B2",
"+#	c #26A820",
"@#	c #39FF3C",
"##	c #97520C",
"$#	c #B4CDD5",
"%#	c #F0EDEC",
"&#	c #424242",
"*#	c #A7A7A7",
"=#	c #0A0A0A",
"-#	c #C3C3C3",
";#	c #EDEEED",
">#	c #FFF6FF",
",#	c #C5DDC8",
"'#	c #C6E1CF",
")#	c #975C65",
"!#	c #88F9EE",
"~#	c #8F8DA6",
"{#	c #54BC42",
"]#	c #FFDBFF",
"^#	c #D3B8CD",
"/#	c #B4DDE6",
"(#	c #A6DD62",
"_#	c #FFFFEC",
":#	c #73598F",
"<#	c #FFE2FF",
"[#	c #4752DD",
"}#	c #DBE2D9",
"|#	c #464646",
"1#	c #5F5F5F",
"2#	c #959595",
"3#	c #3C3C3C",
"4#	c #C6C6C6",
"5#	c #F9F9F9",
"6#	c #161616",
"7#	c #343434",
"8#	c #383538",
"9#	c #443E43",
"0#	c #0C320B",
"a#	c #5A4E61",
"b#	c #432F23",
"c#	c #B4CECC",
"d#	c #928C9C",
"e#	c #EAFADF",
"f#	c #81AE7E",
"g#	c #F8EAF9",
"h#	c #CFC8C0",
"i#	c #C399D5",
"j#	c #AAA8E8",
"k#	c #90E261",
"l#	c #FFFFFC",
"m#	c #7883B0",
"n#	c #1B1D6A",
"o#	c #5B583A",
"p#	c #00004F",
"q#	c #635F3A",
"r#	c #4A494B",
"s#	c #878787",
"t#	c #8A8A8A",
"u#	c #DCDCDC",
"v#	c #EAEAEA",
"w#	c #F8F8F8",
"x#	c #5FAF5F",
"y#	c #545AA1",
"z#	c #685082",
"A#	c #6CE366",
"B#	c #B5C1B8",
"C#	c #FFECFF",
"D#	c #F7F9DD",
"E#	c #FFFFD6",
"F#	c #FFFAF8",
"G#	c #000052",
"H#	c #8373C2",
"I#	c #F9EFF4",
"J#	c #FFFFFA",
"K#	c #9899E5",
"L#	c #FEFEFE",
"M#	c #F2F2F2",
"N#	c #FDFDFD",
"O#	c #CBCBCB",
"P#	c #D2D2D2",
"Q#	c #CFCFCF",
"R#	c #CECECE",
"S#	c #CACCCA",
"T#	c #FAE5FA",
"U#	c #59955A",
"V#	c #FFEDFD",
"W#	c #FEFFDB",
"X#	c #5152BA",
"Y#	c #D5D4CB",
"Z#	c #4EB039",
"`#	c #E3F1C7",
" $	c #9281C3",
".$	c #4C50D6",
"+$	c #314DD8",
"@$	c #55E74F",
"#$	c #FDE0F4",
"$$	c #FFF9E3",
"%$	c #1213AE",
"&$	c #DDDDD3",
"*$	c #DDDDD2",
"=$	c #CCCCCE",
"-$	c #CCCCCC",
";$	c #818181",
">$	c #D3D3D3",
",$	c #D0D1D0",
"'$	c #F5E4F5",
")$	c #679D69",
"!$	c #FFF4F0",
"~$	c #7F7DD2",
"{$	c #CFD0CD",
"]$	c #FFFFEB",
"^$	c #CFE5B8",
"/$	c #6974A7",
"($	c #70A7B1",
"_$	c #A4ABDF",
":$	c #D8D7E3",
"<$	c #FFFAD3",
"[$	c #F8E5E3",
"}$	c #C8D0C7",
"|$	c #81B781",
"1$	c #FFFFF1",
"2$	c #4547B0",
"3$	c #FFFFDD",
"4$	c #D1D1D2",
"5$	c #E1E1E1",
"6$	c #D0D0D0",
"7$	c #D1D2D1",
"8$	c #E5DBE8",
"9$	c #9DC19A",
"0$	c #F2FFD2",
"a$	c #948BCD",
"b$	c #F7FAD9",
"c$	c #BFB7FF",
"d$	c #0F3F7B",
"e$	c #CEC6F2",
"f$	c #468D62",
"g$	c #F3F4E9",
"h$	c #EAE1F1",
"i$	c #D7D9DF",
"j$	c #ECD5EC",
"k$	c #8EDC8D",
"l$	c #FFF4FF",
"m$	c #766FCF",
"n$	c #EEEED7",
"o$	c #D0D0D2",
"p$	c #D9D6DB",
"q$	c #FFF7FB",
"r$	c #00000B",
"s$	c #7280F3",
"t$	c #959FCC",
"u$	c #FFFEFF",
"v$	c #485F00",
"w$	c #C8D3F1",
"x$	c #E7DFE1",
"y$	c #F9E7F1",
"z$	c #5CBE44",
"A$	c #AA886C",
"B$	c #DAE0E5",
"C$	c #DDD0DC",
"D$	c #E2EDEC",
"E$	c #000C00",
"F$	c #FFFCFF",
"G$	c #DEDED1",
"H$	c #EEEEEE",
"I$	c #0B0B0B",
"J$	c #8F8F8F",
"K$	c #E6E6E6",
"L$	c #CECECD",
"M$	c #CFD0D1",
"N$	c #EBE5DD",
"O$	c #B39668",
"P$	c #FFFFF7",
"Q$	c #E6E3CF",
"R$	c #F1F1FB",
"S$	c #9A7D58",
"T$	c #E5E0DE",
"U$	c #D7D5D3",
"V$	c #E3D7E5",
"W$	c #D7CCD9",
"X$	c #BEA799",
"Y$	c #D9DFE7",
"Z$	c #F9F4FF",
"`$	c #926C3C",
" %	c #F7F3FF",
".%	c #CDCDCE",
"+%	c #E3E3E3",
"@%	c #050505",
"#%	c #CCCFD2",
"$%	c #E7E9DC",
"%%	c #FFFFC4",
"&%	c #DADCE1",
"*%	c #D9DBE1",
"=%	c #DBDDE2",
"-%	c #D1D2D2",
";%	c #D2D3D3",
">%	c #D7D9DC",
",%	c #D4D5DD",
"'%	c #F4F5D4",
")%	c #FFFFD8",
"!%	c #FFFFDA",
"~%	c #D6DAE1",
"{%	c #CDCDCD",
"]%	c #FAFAFE",
"^%	c #7676E3",
"/%	c #FAFACA",
"(%	c #ECECCC",
"_%	c #CFCFD2",
":%	c #CFCFD3",
"<%	c #FFFFC3",
"[%	c #FFFFBD",
"}%	c #DCDCD0",
"|%	c #FDFCFE",
"1%	c #2B2BFF",
"2%	c #4F4FE7",
"3%	c #FEFEC9",
"4%	c #D2D2D3",
"5%	c #CDCDD4",
"6%	c #B7B7EC",
"7%	c #0C0C09",
"8%	c #606083",
"9%	c #5F5FEB",
"0%	c #8282FF",
"a%	c #FBFBCC",
"b%	c #C7C7CB",
"c%	c #C9C9CB",
"d%	c #FFFFC7",
"e%	c #3A3AFF",
"f%	c #5C5CEB",
"g%	c #0B0B09",
"                        . . . . . . . .                         ",
"                  . . + @ # $ % % $ # @ + . .                   ",
"              . . & * = - - ; > , ' ) ! ~ { & . .               ",
"            . ] ^ / ( _ : < [ } | 1 2 3 4 5 6 7 ] .             ",
"          . @ 8 9 0 a b - c d e f g h i j k l m n @ .           ",
"        . o - p q r s t u v w x y z A b B s C D E E F G         ",
"      . @ - H I J K L M N O P Q R P S T U U V W - E X Y .       ",
"    . ] Z `  ...+.@.#.$.%.&.*.=.-.;.>.,.'.).!.~.{.].^.[ /..     ",
"    (._.:.<.[.}.|.1.2.3.4.5.6.7.8.[ 9.0.a.b.c.d.e.f.g.[ h.i.    ",
"  . j.k.l.m.n.o.p.q.r.s.t.u.v.w.x.y.z.A.B.C.D.E.F.G.H.I.J.K..   ",
"  . L.M.N.O.[ P.Q.R.S.T.U.V.W.X.Y.Z.`.[  +.+++@+#+$+%+- - &+.   ",
"  + - *+=+-+;+>+,+'+)+!+~+{+]+^+/+(+_+:+<+[+}+|+1+2+3+4+5+6++   ",
". 7+8+9+[ 0+a+[ b+c+d+e+[ f+g+h+i+j+k+l+m+n+o+[ [ p+[ q+r+s+t+. ",
". u+v+[ w+x+y+z+A+B+C+[ D+E+F+G+H+I+J+K+L+M+N+O+P+Q+R+S+[ T+U+. ",
". (.V+[ W+X+Y+Z+`+ @.@+@@@#@$@%@&@*@=@-@;@>@,@'@)@!@~@{@[ ]@^@. ",
". . $ [ /@(@_@:@<@[@}@|@1@2@3@4@5@6@7@8@9@0@a@b@c@d@e@f@[ g@h@. ",
". . + i@j@k@l@m@n@o@p@q@r@s@t@u@v@w@x@y@z@A@B@C@D@E@F@G@H@I@J@. ",
". . K@[ L@M@N@O@P@Q@R@S@T@U@V@W@X@Y@Z@`@ #.#+#@###$#%#&#[ g@*#. ",
"=#. # [ -#;#>#,#'#[ )#!#~#[ {#]#^#/#(#_#[ [ :#<#[#}#[ |#[ 1#2#. ",
". 3#4#5#6#7#8#9#0#a#b#c#d#e#f#g#h#i#j#k#l#m#n#o#p#q#r#. [ s#t#. ",
"  + u#v#w#[ [ [ x#[ [ y#z#A#B#C#D#E#F#G#H#I#J#[ K#[ [ L#M#N#+   ",
"  . O#P#Q#R#S#T#U#V#W#X#[ Y#Z#`# $.$+$[ @$#$$$%$&$*$=$R#-$$ .   ",
"  . ;$R#>$>$,$'$)$!$~${$]$^$/$($_$:$<$[$}$|$1$2$3$4$P#Q#5$& .   ",
"    (.6$Q#>$7$8$9$0$a$b$c$d$[ e$f$g$h$i$j$k$l$m$n$o$V+V+$ =#    ",
"    . ] # P#V+p$q$r$s$t$u$v$w$x$y$z$A$B$C$D$E$F$G$4$Q#H$] .     ",
"      I$J$K$L$M$N$O$P$Q$R$S$T$U$V$W$X$Y$U Z$`$ %Q#.%+%@ @%      ",
"        . F +%#%$%` E#%%&%*%=%-%;%>%,%'%%%)%!%~%{%+%F .         ",
"          . @ ]%b ^%- /%(%_%P#P#P#P#:%<%- - [%}%|%@ .           ",
"            . ] $ 1%- 2%3%:%>$>$>$4%5%<%- - 6%$ ] .             ",
"              . 7%8%9%0%a%b%O#-$-$O#c%d%e%f%& g%.               ",
"                  . . + @ # $ % % $ # @ + . .                   ",
"                        . . . . . . . .                         "};
