/* XPM */
static const char * rotation_xpm[] = {
"32 32 23 1",
" 	c None",
".	c #000000",
"+	c #BE8ABF",
"@	c #B884B9",
"#	c #B47DB5",
"$	c #AF77AF",
"%	c #AA70AB",
"&	c #A56AA6",
"*	c #9F63A0",
"=	c #9A5C9B",
"-	c #020000",
";	c #965697",
">	c #904F91",
",	c #8C498D",
"'	c #874287",
")	c #813C82",
"!	c #7C357D",
"~	c #772E78",
"{	c #732873",
"]	c #6E216F",
"^	c #681B69",
"/	c #631464",
"(	c #5F0D5F",
"                                ",
"             .                  ",
"             ..                 ",
"             .+.                ",
"             .++.               ",
"         ....++++.              ",
"       ..+++++++++.             ",
"      .++++++++++++.            ",
"     .@@@@@@@@@@@@@.            ",
"     .############.             ",
"    .$$$$$...$$$$.              ",
"    .%%%..   .%%.               ",
"   .&&&.     .&.                ",
"   .***.     ..                 ",
"   .==.      .  .-              ",
"   .;;.         .-              ",
"   .>.          .-         ..   ",
"   .,.          .-         ..   ",
"   .'.          .-         ..   ",
"   .).    .............   ..    ",
"   .!.    -------------   ..    ",
"   .~~.         .-       ...    ",
"    .{.         .-       ..     ",
"    .]..        .-      ...     ",
"     .^..       .-     ...      ",
"     ./....     .-    ....      ",
"      .(.....       .....       ",
"       .................        ",
"        ...............         ",
"          ...........           ",
"             ......             ",
"                                "};

