/* XPM */
static const char *lamp_xpm[] = {
/* width height ncolors chars_per_pixel */
"22 20 3 1",
/* colors */
/*"  c #FFFFFF",*/
"  c None",
". c #FFFF00",
"X c None",
/* pixels */
"                      ",
"                      ",
"      ..      ...     ",
"      ...    ...      ",
"      ....   ...      ",
"       ...  ...       ",
"        .    ..       ",
"         ....         ",
"         .....        ",
"  ..... ...... .....  ",
"  ..... ...... .....  ",
"         .....        ",
"          ...         ",
"        .     .       ",
"       ...  ...       ",
"      ....   ...      ",
"      ...    ....     ",
"      ..      ...     ",
"                      ",
"                      "
};
