/* XPM */
static char * radialfieldsource_xpm[] = {
"62 59 3 1",
" 	c None",
".	c #FF0000",
"+	c #000000",
"                                                              ",
"  .                                                         . ",
" ...                                                      ....",
"  .....                                                 ....  ",
"   ......                 +++++++++++                .......  ",
"   ......             ++++++++++++++++++              .....   ",
"    .....           ++++++++++++++++++++++            .....   ",
"    ......        +++++++            +++++++         .....    ",
"     . ....     ++++++                  ++++++      ......    ",
"        ....   +++++                      +++++    ....       ",
"         .... ++++                          ++++ .....        ",
"          ...++++                            +++++..          ",
"           .++++                              ++++.           ",
"           ++++.                              ..+++           ",
"          ++++...                            ...++++          ",
"          +++ ....          +++++++         .... ++++         ",
"         +++   ....      +++++++++++++     ....   +++         ",
"        ++++    ....   ++++++++++++++++   ....     +++        ",
"        +++      .... ++++++       ++++++....      ++++       ",
"       ++++       ...++++            +++++..        +++       ",
"       +++         .++++               ++++         +++       ",
"       +++         ++++..             ..++++         +++      ",
"      +++          +++....           ....+++         +++      ",
"      +++         +++  ....         .... ++++        +++      ",
"      +++         +++   ....       ....   +++         +++     ",
"      ++         +++     ....     ....     ++         +++     ",
"      ++         +++      ....   ....      +++        +++     ",
"      ++         +++       .........       +++        +++     ",
"     +++         ++         .......        +++        +++     ",
"     +++         ++          ....          +++        +++     ",
"     +++         ++         ......         +++        +++     ",
"     +++         ++        ........        +++        +++     ",
"      ++         +++      ....  ....       +++        +++     ",
"      ++         +++     ....    ....      +++        +++     ",
"      ++         +++    ....      ....    +++         +++     ",
"      +++         +++  ....        ....   +++         +++     ",
"      +++         +++ ....          .... +++         +++      ",
"       ++          +++...            ...++++         +++      ",
"       +++         ++++.              ..+++          +++      ",
"       +++         .++++              ++++..        +++       ",
"        +++       ...+++++           +++++...       +++       ",
"        +++      .... +++++++     ++++++  ....     +++        ",
"         +++    ....    +++++++++++++++    ....    +++        ",
"         ++++  ....       +++++++++++       ....  +++         ",
"          +++ ....             +             ....++++         ",
"           +++...                             ..++++          ",
"           ++++                                ++++           ",
"          ..++++                              ++++..          ",
"         ....+++++                           ++++....         ",
"        ....  +++++                        +++++  ....        ",
"     ......     +++++                     +++++    .... .     ",
"     .....       ++++++                +++++++      ......    ",
"    .....          +++++++          ++++++++         .....    ",
"    ......           +++++++++++++++++++++           ......   ",
"   ......              ++++++++++++++++              ......   ",
"   ....                     ++++++                     .....  ",
" ...                                                      ..  ",
"  .                                                           ",
"                                                              "};
