<?xml version="1.0" encoding="UTF-8" ?>
<!DOCTYPE svg PUBLIC "-//W3C//DTD SVG 1.1//EN" "http://www.w3.org/Graphics/SVG/1.1/DTD/svg11.dtd">
<svg width="62pt" height="59pt" viewBox="0 0 62 59" version="1.1" xmlns="http://www.w3.org/2000/svg">
<path fill="#ffffff" d=" M 0.00 0.00 L 62.00 0.00 L 62.00 2.60 C 61.69 2.18 61.06 1.35 60.74 0.93 C 58.98 1.96 57.19 2.94 55.43 3.97 C 54.82 3.94 53.61 3.90 53.01 3.88 C 55.73 7.19 50.85 9.14 48.75 10.95 C 47.38 9.79 46.00 8.64 44.52 7.63 C 44.01 7.40 43.00 6.95 42.49 6.72 C 40.50 5.75 38.43 4.95 36.39 4.08 C 33.15 3.96 29.91 3.95 26.67 4.12 C 24.60 4.87 22.48 5.40 20.42 6.15 C 17.86 7.45 15.33 8.86 13.40 11.03 C 11.96 9.50 10.49 8.00 9.01 6.53 C 9.00 5.98 9.00 4.90 9.00 4.36 C 8.36 4.05 7.07 3.43 6.43 3.12 C 5.91 3.08 4.87 3.01 4.35 2.98 C 3.74 2.26 3.13 1.55 2.52 0.84 C 2.15 1.22 1.41 1.97 1.03 2.35 C 1.78 3.36 2.52 4.39 3.22 5.44 C 4.18 6.36 4.82 10.70 6.64 8.05 C 8.23 9.73 9.85 11.38 11.44 13.06 C 11.17 13.40 10.62 14.08 10.35 14.41 C 9.24 16.07 8.16 17.74 7.12 19.45 C 7.01 19.92 6.80 20.87 6.69 21.35 C 5.94 23.77 6.14 26.39 5.15 28.74 C 5.15 29.59 5.15 30.43 5.16 31.27 C 5.92 33.28 6.11 35.44 6.60 37.52 C 7.10 38.90 7.64 40.26 8.16 41.63 C 8.97 42.94 9.80 44.24 10.68 45.51 C 10.82 45.72 11.11 46.14 11.
25 46.34 C 10.00 47.55 8.76 48.77 7.53 50.00 C 6.98 50.00 5.88 50.00 5.33 50.00 C 4.47 52.00 3.54 53.99 2.67 56.00 C 2.17 56.00 1.15 56.00 0.65 56.00 C 1.29 56.74 1.92 57.47 2.56 58.21 C 3.01 57.66 3.89 56.55 4.34 55.99 C 4.88 55.99 5.98 55.99 6.53 55.99 C 7.85 55.10 9.17 54.20 10.47 53.28 L 8.66 52.79 C 10.10 51.40 11.54 50.00 12.99 48.61 C 13.35 48.88 14.07 49.41 14.42 49.68 C 15.78 50.56 17.14 51.45 18.53 52.28 C 19.49 52.79 20.45 53.31 21.40 53.85 C 23.29 54.68 25.31 55.06 27.35 55.33 C 29.69 56.28 32.31 56.27 34.65 55.33 C 36.32 55.04 38.00 54.79 39.63 54.32 C 40.09 54.19 41.01 53.94 41.47 53.81 C 42.49 53.31 43.51 52.83 44.54 52.36 C 46.14 51.26 47.60 49.97 48.99 48.62 C 50.33 49.87 51.66 51.14 53.00 52.40 C 53.00 52.97 53.00 54.09 53.00 54.66 C 53.63 54.95 54.90 55.53 55.54 55.82 C 56.01 55.92 56.96 56.12 57.43 56.21 C 58.17 56.49 59.65 57.05 60.39 57.32 C 59.41 54.56 58.06 51.93 56.40 49.51 L 55.80 51.28 C 54.20 49.70 52.60 48.13 50.96 46.59 C 52.07 45.39 52.98 44.04 53.81 42.65 C 54.29 41.55 54.80 
40.46 55.30 39.37 C 55.70 38.43 56.09 37.48 56.46 36.53 C 57.33 32.26 57.31 27.76 56.49 23.49 C 56.06 22.46 55.62 21.44 55.17 20.43 C 55.10 19.96 54.96 19.04 54.89 18.58 C 54.11 17.54 53.34 16.49 52.64 15.39 C 51.96 14.54 51.28 13.69 50.59 12.85 C 52.23 11.57 53.92 10.35 55.54 9.04 C 56.07 9.03 57.14 9.01 57.67 8.99 C 58.54 6.98 59.47 5.00 60.33 2.99 C 60.75 3.00 61.58 3.01 62.00 3.01 L 62.00 59.00 L 0.00 59.00 L 0.00 0.00 Z" />
<path fill="#ff0000" d=" M 2.52 0.84 C 3.13 1.55 3.74 2.26 4.35 2.98 C 4.87 3.01 5.91 3.08 6.43 3.12 C 7.07 3.43 8.36 4.05 9.00 4.36 C 9.00 4.90 9.00 5.98 9.01 6.53 C 10.49 8.00 11.96 9.50 13.40 11.03 C 12.73 11.69 12.08 12.37 11.44 13.06 C 9.85 11.38 8.23 9.73 6.64 8.05 C 4.82 10.70 4.18 6.36 3.22 5.44 C 2.52 4.39 1.78 3.36 1.03 2.35 C 1.41 1.97 2.15 1.22 2.52 0.84 Z" />
<path fill="#ff0000" d=" M 60.74 0.93 C 61.06 1.35 61.69 2.18 62.00 2.60 L 62.00 3.01 C 61.58 3.01 60.75 3.00 60.33 2.99 C 59.47 5.00 58.54 6.98 57.67 8.99 C 57.14 9.01 56.07 9.03 55.54 9.04 C 53.92 10.35 52.23 11.57 50.59 12.85 C 50.30 12.53 49.73 11.88 49.44 11.56 L 48.75 10.95 C 50.85 9.14 55.73 7.19 53.01 3.88 C 53.61 3.90 54.82 3.94 55.43 3.97 C 57.19 2.94 58.98 1.96 60.74 0.93 Z" />
<path fill="#000000" d=" M 26.67 4.12 C 29.91 3.95 33.15 3.96 36.39 4.08 C 38.43 4.95 40.50 5.75 42.49 6.72 C 43.00 6.95 44.01 7.40 44.52 7.63 C 46.00 8.64 47.38 9.79 48.75 10.95 L 49.44 11.56 C 49.73 11.88 50.30 12.53 50.59 12.85 C 51.28 13.69 51.96 14.54 52.64 15.39 C 53.34 16.49 54.11 17.54 54.89 18.58 C 54.96 19.04 55.10 19.96 55.17 20.43 C 55.62 21.44 56.06 22.46 56.49 23.49 C 57.31 27.76 57.33 32.26 56.46 36.53 C 56.09 37.48 55.70 38.43 55.30 39.37 C 54.80 40.46 54.29 41.55 53.81 42.65 C 52.98 44.04 52.07 45.39 50.96 46.59 C 50.31 47.28 49.66 47.95 48.99 48.62 C 47.60 49.97 46.14 51.26 44.54 52.36 C 43.51 52.83 42.49 53.31 41.47 53.81 C 41.01 53.94 40.09 54.19 39.63 54.32 C 38.00 54.79 36.32 55.04 34.65 55.33 C 32.31 56.27 29.69 56.28 27.35 55.33 C 25.31 55.06 23.29 54.68 21.40 53.85 C 20.45 53.31 19.49 52.79 18.53 52.28 C 17.14 51.45 15.78 50.56 14.42 49.68 C 14.07 49.41 13.35 48.88 12.99 48.61 C 12.38 47.88 11.80 47.12 11.25 46.34 C 11.11 46.14 10.82 45.72 10.68 45.51 C 9.80 44.24 8.97 42.94 8.16 41.
63 C 7.64 40.26 7.10 38.90 6.60 37.52 C 6.11 35.44 5.92 33.28 5.16 31.27 C 5.15 30.43 5.15 29.59 5.15 28.74 C 6.14 26.39 5.94 23.77 6.69 21.35 C 6.80 20.87 7.01 19.92 7.12 19.45 C 8.16 17.74 9.24 16.07 10.35 14.41 C 10.62 14.08 11.17 13.40 11.44 13.06 C 12.08 12.37 12.73 11.69 13.40 11.03 C 15.33 8.86 17.86 7.45 20.42 6.15 C 22.48 5.40 24.60 4.87 26.67 4.12 Z" />
<path fill="#ffffff" d=" M 24.51 7.67 C 28.12 6.28 32.20 7.21 35.99 7.06 C 36.37 7.22 37.12 7.53 37.49 7.69 C 38.47 7.98 39.44 8.30 40.40 8.64 C 40.91 8.90 41.94 9.41 42.45 9.67 C 44.51 10.50 45.81 12.33 46.94 14.15 C 44.66 14.46 42.62 16.56 42.18 18.79 C 39.47 17.83 37.19 16.03 34.47 15.10 C 32.16 15.15 29.59 14.40 27.51 15.72 C 26.51 15.99 25.52 16.27 24.53 16.56 C 23.05 17.46 21.78 18.64 20.57 19.87 C 20.48 17.18 17.53 14.83 15.07 14.14 C 16.25 11.95 18.06 10.24 20.32 9.19 C 21.71 8.65 23.09 8.11 24.51 7.67 Z" />
<path fill="#ffffff" d=" M 13.31 14.66 C 15.50 16.26 16.94 19.14 19.69 19.77 C 19.44 20.49 18.96 21.91 18.72 22.62 C 16.36 25.63 16.99 29.49 17.00 33.05 C 16.90 34.68 18.09 35.97 18.72 37.38 C 18.96 38.09 19.44 39.51 19.67 40.22 C 16.97 40.86 15.53 43.66 13.42 45.28 C 12.91 43.43 11.61 42.00 10.62 40.41 C 9.85 38.82 9.13 37.20 8.67 35.49 C 7.55 32.08 7.55 27.92 8.68 24.51 C 9.11 22.79 9.85 21.18 10.67 19.61 C 11.51 17.94 12.38 16.28 13.31 14.66 Z" />
<path fill="#ffffff" d=" M 42.20 19.49 C 45.04 19.66 46.37 16.18 48.55 14.74 C 49.56 15.97 50.61 17.19 51.39 18.59 C 52.13 20.19 52.87 21.80 53.33 23.51 C 54.72 27.11 53.79 31.18 53.94 34.96 C 53.79 35.34 53.48 36.11 53.33 36.49 C 52.88 38.20 52.13 39.81 51.39 41.41 C 50.74 43.07 49.31 44.07 47.84 44.94 C 47.43 42.14 44.51 40.74 42.91 38.62 C 43.56 37.65 44.19 36.67 44.80 35.67 C 46.38 32.61 46.63 28.67 45.29 25.51 C 45.02 24.52 44.73 23.52 44.43 22.53 C 43.73 21.49 42.99 20.47 42.20 19.49 Z" />
<path fill="#ffffff" d=" M 27.51 18.67 C 29.93 17.63 33.05 17.52 35.43 18.71 C 36.65 19.30 37.91 19.85 39.18 20.33 L 38.88 20.63 C 36.74 22.73 34.64 24.86 32.55 27.00 C 32.03 27.00 30.97 27.00 30.44 27.00 C 28.36 24.86 26.24 22.74 24.15 20.61 L 23.71 20.17 C 24.93 19.54 26.19 19.03 27.51 18.67 Z" />
<path fill="#ff0000" d=" M 21.76 22.52 C 22.35 22.05 23.55 21.09 24.15 20.61 C 26.24 22.74 28.36 24.86 30.44 27.00 C 30.97 27.00 32.03 27.00 32.55 27.00 C 34.64 24.86 36.74 22.73 38.88 20.63 C 39.43 21.06 40.54 21.91 41.10 22.33 L 40.64 22.81 C 38.25 25.25 36.04 28.01 32.90 29.51 C 35.43 31.83 37.84 34.27 40.13 36.83 C 40.11 37.47 40.07 38.75 40.05 39.39 C 39.60 39.20 38.70 38.82 38.25 38.63 C 35.71 36.55 33.78 33.57 30.95 31.98 C 28.30 33.66 26.26 36.25 24.13 38.56 L 23.54 39.25 C 23.06 38.66 22.09 37.47 21.61 36.88 C 24.08 34.40 26.56 31.93 29.09 29.51 C 26.87 27.39 24.78 25.13 22.45 23.13 L 21.76 22.52 Z" />
<path fill="#ffffff" d=" M 21.33 22.68 L 22.45 23.13 C 24.78 25.13 26.87 27.39 29.09 29.51 C 26.56 31.93 24.08 34.40 21.61 36.88 L 21.25 37.24 C 20.58 35.29 20.17 33.20 19.03 31.45 C 19.01 30.10 18.86 28.69 19.70 27.52 C 20.17 25.88 20.77 24.29 21.33 22.68 Z" />
<path fill="#ffffff" d=" M 32.90 29.51 C 36.04 28.01 38.25 25.25 40.64 22.81 C 44.14 25.61 43.26 30.63 42.46 34.49 C 41.69 35.15 41.33 37.27 40.13 36.83 C 37.84 34.27 35.43 31.83 32.90 29.51 Z" />
<path fill="#ffffff" d=" M 24.13 38.56 C 26.26 36.25 28.30 33.66 30.95 31.98 C 33.78 33.57 35.71 36.55 38.25 38.63 C 37.92 41.09 35.04 40.80 33.45 41.94 C 31.79 41.95 29.99 42.33 28.52 41.31 C 26.88 40.83 25.28 40.23 23.67 39.66 L 24.13 38.56 Z" />
<path fill="#ffffff" d=" M 14.07 45.67 C 17.50 46.43 18.97 42.60 21.36 40.93 C 22.97 42.03 24.68 42.99 26.49 43.74 C 28.08 44.26 30.10 43.51 31.38 44.84 C 33.18 43.60 35.50 44.24 37.47 43.47 C 38.90 42.77 40.00 40.68 41.73 41.07 C 43.66 42.74 45.64 44.46 47.06 46.60 C 44.82 48.53 42.45 50.64 39.49 51.33 C 38.50 51.68 37.50 52.01 36.50 52.32 C 33.08 53.44 28.93 53.46 25.52 52.33 C 24.10 51.88 22.71 51.37 21.33 50.81 C 18.84 49.20 16.18 47.79 14.07 45.67 Z" />
<path fill="#ff0000" d=" M 7.53 50.00 C 8.76 48.77 10.00 47.55 11.25 46.34 C 11.80 47.12 12.38 47.88 12.99 48.61 C 11.54 50.00 10.10 51.40 8.66 52.79 L 10.47 53.28 C 9.17 54.20 7.85 55.10 6.53 55.99 C 5.98 55.99 4.88 55.99 4.34 55.99 C 3.89 56.55 3.01 57.66 2.56 58.21 C 1.92 57.47 1.29 56.74 0.65 56.00 C 1.15 56.00 2.17 56.00 2.67 56.00 C 3.54 53.99 4.47 52.00 5.33 50.00 C 5.88 50.00 6.98 50.00 7.53 50.00 Z" />
<path fill="#ff0000" d=" M 48.99 48.62 C 49.66 47.95 50.31 47.28 50.96 46.59 C 52.60 48.13 54.20 49.70 55.80 51.28 L 56.40 49.51 C 58.06 51.93 59.41 54.56 60.39 57.32 C 59.65 57.05 58.17 56.49 57.43 56.21 C 56.96 56.12 56.01 55.92 55.54 55.82 C 54.90 55.53 53.63 54.95 53.00 54.66 C 53.00 54.09 53.00 52.97 53.00 52.40 C 51.66 51.14 50.33 49.87 48.99 48.62 Z" />
</svg>
