/* XPM */
static const char * creaworld[] = {
"32 32 43 1",
" 	c None",
".	c #F14F4F",
"+	c #E85E5E",
"@	c #E85555",
"#	c #F04545",
"$	c #B0B0B0",
"%	c #E35050",
"&	c #E35959",
"*	c #E85959",
"=	c #E35454",
"-	c #DD7070",
";	c #E85656",
">	c #E85D5D",
",	c #B7AEAE",
"'	c #B6ADAD",
")	c #C68F8F",
"!	c #BBA7A7",
"~	c #DC5E5E",
"{	c #BBA8A8",
"]	c #DC6666",
"^	c #CA8888",
"/	c #BBA4A4",
"(	c #D77878",
"_	c #C19F9F",
":	c #D76A6A",
"<	c #C19A9A",
"[	c #B7ACAC",
"}	c #CC8484",
"|	c #D77979",
"1	c #E86868",
"2	c #ED5F5F",
"3	c #EC6161",
"4	c #ED6666",
"5	c #EA5454",
"6	c #D77A7A",
"7	c #CF7B7B",
"8	c #C98989",
"9	c #CF8181",
"0	c #C98D8D",
"a	c #F54949",
"b	c #EF5252",
"c	c #ED4C4C",
"d	c #F33E3E",
".+@++@+@++@++@+@++@++@+@++@++@+#",
"@$$$$$$$$$$$$$$$$$$$$$$$$$$$$$$%",
"+$$$$$$$$$$$$$$$$$$$$$$$$$$$$$$&",
"*$$$$$$$$$$$$$$$$$$$$$$$$$$$$$$=",
"*$$$$$$$$$$$$$$$$$$$$$$$$$$$$$$=",
"+$$$$$$$$$$$$$$$$$$$$$$$$$$$$$$&",
"@$$$$$$$$$$$$$$$$$$$$$$$$$$$$$$%",
"+$$$$$$$$$$$$$$$$$$$$$$$$$$$$$$&",
"+$$$$$$$-+@+;>+@++@+@,$$$$$$$$$&",
"@$$$$$$$$$$$$$$$$$$$$$$$$$$$$$$%",
"+$$$$$$$$$$$$$$$$$$$$$$$$$$$$$$&",
"*$$$$$$$$$$$$$$$$$$$$$$$$$$$$$$=",
"*$$$$$$$$$$$$$$$$$$$$$$$$$$$$$$=",
"+$$$$$$$$$$$$$$$$$$$$$$$$')$$$$&",
"@$$$$$$$$$$$$$$$$$$$$$$$$!~$$$$%",
"+$$$$$$$$$$$$$$$$$$$$$$$${]$$$$&",
"+$$$$$$$$$$$$$$$$$$$$$$$${]$$$$&",
"@$$$$$$$$$$$$$$$$$$$$$$$$!~$$$$%",
"+$$$$$$$$$$$$$$$$$$$$$$$${]$$$$&",
"*$$$$$$$$$$$$$$$^/$$$$$$${]$$$$=",
"*$$$$$$$$$$$$$$$(_$$$$$$$!~$$$$=",
"+$$$$$$$$$$$$$$$:<$$$$$$$[}$$$$&",
"@$$$$$$$$$$$$$$$(_$$$$$$$$$$$$$%",
"+$$$$$$$$$$$$$$$:<$$$$$$$$$$$$$&",
"+$$$$$$|1@1@23@1451@16$$$$$$$$$&",
"@$$$$$$$$$$$78$$$$$$$$$$$$$$$$$%",
"+$$$$$$$$$$$90$$$$$$$$$$$$$$$$$&",
"*$$$$$$$$$$$78$$$$$$$$$$$$$$$$$=",
"*$$$$$$$$$$$90$$$$$$$$$$$$$$$$$=",
"+$$$$$$$$$$$90$$$$$$$$$$$$$$$$$&",
"@$$$$$$$$$$$78$$$$$$$$$$$$$$$$$%",
"a+@++@+@++@+bc+@++@++@+@++@++@+d"};

