/* XPM */
static const char * simgo_xpm[] = {
"32 32 77 1",
" 	g None",
".	g #000000",
"+	g #010101",
"@	g #606060",
"#	g #050505",
"$	g #040404",
"%	g #9E9E9E",
"&	g #5D5D5D",
"*	g #0F0F0F",
"=	g #090909",
"-	g #B3B3B3",
";	g #171717",
">	g #0C0C0C",
",	g #C6C6C6",
"'	g #DCDCDC",
")	g #C2C2C2",
"!	g #191919",
"~	g #0E0E0E",
"{	g #C7C7C7",
"]	g #EFEFEF",
"^	g #C1C1C1",
"/	g #131313",
"(	g #B6B6B6",
"_	g #DADADA",
":	g #252525",
"<	g #ACACAC",
"[	g #C3C3C3",
"}	g #A4A4A4",
"|	g #EEEEEE",
"1	g #A9A9A9",
"2	g #AAAAAA",
"3	g #9D9D9D",
"4	g #E0E0E0",
"5	g #8E8E8E",
"6	g #959595",
"7	g #D3D3D3",
"8	g #878787",
"9	g #858585",
"0	g #C5C5C5",
"a	g #868686",
"b	g #B7B7B7",
"c	g #838383",
"d	g #989898",
"e	g #B4B4B4",
"f	g #7E7E7E",
"g	g #A8A8A8",
"h	g #919191",
"i	g #949494",
"j	g #A5A5A5",
"k	g #585858",
"l	g #313131",
"m	g #777777",
"n	g #9B9B9B",
"o	g #747474",
"p	g #6F6F6F",
"q	g #8D8D8D",
"r	g #686868",
"s	g #7F7F7F",
"t	g #787878",
"u	g #BBBBBB",
"v	g #515151",
"w	g #222222",
"x	g #5B5B5B",
"y	g #707070",
"z	g #BEBEBE",
"A	g #565656",
"B	g #6D6D6D",
"C	g #BCBCBC",
"D	g #727272",
"E	g #545454",
"F	g #666666",
"G	g #6B6B6B",
"H	g #4E4E4E",
"I	g #5F5F5F",
"J	g #424242",
"K	g #4C4C4C",
"L	g #373737",
"                                ",
"                                ",
"                                ",
"         ..                     ",
"         +@#                    ",
"         $%&*                   ",
"         =-%&;                  ",
"         >,')&!                 ",
"         ~{]'^&!                ",
"         /(]{_^&!               ",
"         :<][)_^&!              ",
"         .}|(12'^&!             ",
"         .341551'^&!            ",
"         .6758951'^&!           ",
"         .50899951'^&/          ",
"         .ab9cc98de'^&=         ",
"         .fgccc8hij1kl=         ",
"         .mnc98hdjokl/          ",
"         .pqhhhdjokl!           ",
"         .rsihn-okl!            ",
"         l@td3uovl!             ",
"         wxynzovl!              ",
"         /ABCDvl!               ",
"         ~EFGvl!                ",
"         >HIvl!                 ",
"         =JKl;                  ",
"         $Ll*                   ",
"         +l#                    ",
"         ..                     ",
"                                ",
"                                ",
"                                "};
