/* XPM */
static const char * simpause_xpm[] = {
"32 32 48 1",
" 	c None",
".	c #010000",
"+	c #070000",
"@	c #110100",
"#	c #190200",
"$	c #150100",
"%	c #FE6123",
"&	c #FE5D1D",
"*	c #FE5715",
"=	c #D52D00",
"-	c #A11B00",
";	c #711000",
">	c #290400",
",	c #FE5817",
"'	c #FEC89D",
")	c #FEE3C7",
"!	c #FEE0C3",
"~	c #FE975F",
"{	c #2D0500",
"]	c #FE5411",
"^	c #FEF1DF",
"/	c #FEC397",
"(	c #FE9E69",
"_	c #E33600",
":	c #170200",
"<	c #210300",
"[	c #FE5B1B",
"}	c #FFFFFF",
"|	c #FE7031",
"1	c #1B0200",
"2	c #FE6021",
"3	c #FE864B",
"4	c #FE6529",
"5	c #FEA067",
"6	c #1F0300",
"7	c #DD3400",
"8	c #FEE6CD",
"9	c #FEDBB9",
"0	c #FE7F41",
"a	c #000000",
"b	c #410902",
"c	c #FEAB79",
"d	c #C12900",
"e	c #F74000",
"f	c #911800",
"g	c #450A02",
"h	c #991900",
"i	c #891700",
"                                ",
"                                ",
"                                ",
"                                ",
"                                ",
"                                ",
"                                ",
"                                ",
"       .+@##@+.  .+@##@+.       ",
"       $%&*=-;+  $%&*=-;+       ",
"       >,')!~-@  >,')!~-@       ",
"       {]^/(_-:  {]^/(_-:       ",
"       <[}!|_-1  <[}!|_-1       ",
"       12}!3_-1  12}!3_-1       ",
"       14}!5_-1  14}!5_-1       ",
"       14}!5_-1  14}!5_-1       ",
"       14}!5_-1  14}!5_-1       ",
"       14}!5_-1  14}!5_-1       ",
"       14}!5_-1  14}!5_-1       ",
"       14}!5_-1  14}!5_-1       ",
"       67890_-a  67890_-a       ",
"       b=9c|_-a  b=9c|_-a       ",
"       .d_e_-fa  .d_e_-fa       ",
"       ag---hia  ag---hia       ",
"       aaaaaaaa  aaaaaaaa       ",
"                                ",
"                                ",
"                                ",
"                                ",
"                                ",
"                                ",
"                                "};
