/* XPM */
static const char * simrecord_xpm[] = {
"32 32 60 1",
" 	c None",
".	c #504C4C",
"+	c #474343",
"@	c #433F3F",
"#	c #433D3D",
"$	c #403D3D",
"%	c #4D4949",
"&	c #4B4646",
"*	c #463F3F",
"=	c #403939",
"-	c #4A4747",
";	c #A19D9D",
">	c #E46D6D",
",	c #FF3838",
"'	c #FF1212",
")	c #FF0000",
"!	c #FF0505",
"~	c #FF1515",
"{	c #B02D2D",
"]	c #494646",
"^	c #534F4F",
"/	c #CAC5C5",
"(	c #FFA1A1",
"_	c #FF7B7B",
":	c #FF4747",
"<	c #FF1B1B",
"[	c #FF0404",
"}	c #ECC2C2",
"|	c #ECE8E8",
"1	c #EDD6D6",
"2	c #FF9696",
"3	c #FF3F3F",
"4	c #FF0A0A",
"5	c #FF0E0E",
"6	c #9F9B9B",
"7	c #E0DDDD",
"8	c #E2E2E2",
"9	c #E9E9E9",
"0	c #FF8181",
"a	c #FF2121",
"b	c #E0CBCB",
"c	c #E0E0E0",
"d	c #EFD6D6",
"e	c #FF3535",
"f	c #3F3939",
"g	c #595555",
"h	c #F69292",
"i	c #DFDFDF",
"j	c #E4E4E4",
"k	c #FF0101",
"l	c #ED7878",
"m	c #E3CECE",
"n	c #E7E7E7",
"o	c #FEADAD",
"p	c #FF2525",
"q	c #FB3E3E",
"r	c #3F3737",
"s	c #433939",
"t	c #AD2929",
"u	c #FF0C0C",
"                                ",
"                                ",
"                                ",
"                                ",
"                                ",
"                                ",
"             .+@#$#             ",
"           %.$&*#===$           ",
"         -.;>,'))!~{==#         ",
"        ]^/(_:<[))))~==#        ",
"        ./}|1234)))))5==        ",
"       $6(78890a))))))~==       ",
"       $>_b8c8de))))))){f       ",
"      $g,:h8cij3k))))))~f#      ",
"      +&'<3lmnop)))))))!ff      ",
"      @*)[4aeqp!))))))))rr      ",
"      ##)))))k))))))))))rr      ",
"      $=!))))))))))))))!rf      ",
"      #=~))))))))))))))~rs      ",
"       ={))))))))))))))tr       ",
"       $=~))))))))))))~rf       ",
"        ==5))))))))))urr        ",
"        #==~))))))))~rr=        ",
"         #=={~!))!~trr=         ",
"           =fffrrrrrf           ",
"             #frrfs             ",
"                                ",
"                                ",
"                                ",
"                                ",
"                                ",
"                                "};

