<?xml version="1.0" encoding="UTF-8" standalone="no"?>
<svg width="11.9944mm" height="11.9944mm"
 viewBox="-1 -1 33 33"
 xmlns="http://www.w3.org/2000/svg" xmlns:xlink="http://www.w3.org/1999/xlink"  version="1.2" baseProfile="tiny">
<title>SVG Generator Example Drawing</title>
<desc>An SVG drawing created by the SVG Generator Example provided with Qt.</desc>
<defs>
</defs>
<g fill="none" stroke="black" stroke-width="1" fill-rule="evenodd" stroke-linecap="square" stroke-linejoin="bevel" >

<g fill="#808080" fill-opacity="1" stroke="#808080" stroke-opacity="1" stroke-width="1" stroke-linecap="square" stroke-linejoin="bevel" transform="matrix(1,0,0,1,15,15)"
font-family="Noto Sans" font-size="16" font-weight="400" font-style="normal" 
>
<path vector-effect="non-scaling-stroke" fill-rule="evenodd" d="M16,0.5 C16,9.06041 9.06041,16 0.5,16 C-8.06041,16 -15,9.06041 -15,0.5 C-15,-8.06041 -8.06041,-15 0.5,-15 C9.06041,-15 16,-8.06041 16,0.5 "/>
</g>

<g fill="#808080" fill-opacity="1" stroke="#a0a0a0" stroke-opacity="1" stroke-width="1" stroke-linecap="square" stroke-linejoin="bevel" transform="matrix(1,0,0,1,15,15)"
font-family="Noto Sans" font-size="16" font-weight="400" font-style="normal" 
>
<path vector-effect="non-scaling-stroke" fill-rule="evenodd" d="M15,0.5 C15,8.50813 8.50813,15 0.5,15 C-7.50813,15 -14,8.50813 -14,0.5 C-14,-7.50813 -7.50813,-14 0.5,-14 C8.50813,-14 15,-7.50813 15,0.5 "/>
</g>

<g fill="#c0c0c0" fill-opacity="1" stroke="#c0c0c0" stroke-opacity="1" stroke-width="1" stroke-linecap="square" stroke-linejoin="bevel" transform="matrix(1,0,0,1,15,15)"
font-family="Noto Sans" font-size="16" font-weight="400" font-style="normal" 
>
<path vector-effect="non-scaling-stroke" fill-rule="evenodd" d="M14,0.5 C14,7.95584 7.95584,14 0.5,14 C-6.95584,14 -13,7.95584 -13,0.5 C-13,-6.95584 -6.95584,-13 0.5,-13 C7.95584,-13 14,-6.95584 14,0.5 "/>
</g>

<g fill="#009000" fill-opacity="1" stroke="#f0f0f0" stroke-opacity="1" stroke-width="1" stroke-linecap="square" stroke-linejoin="bevel" transform="matrix(1,0,0,1,15,15)"
font-family="Noto Sans" font-size="16" font-weight="400" font-style="normal" 
>
<path vector-effect="non-scaling-stroke" fill-rule="evenodd" d="M13,0.5 C13,7.40356 7.40356,13 0.5,13 C-6.40356,13 -12,7.40356 -12,0.5 C-12,-6.40356 -6.40356,-12 0.5,-12 C7.40356,-12 13,-6.40356 13,0.5 "/>
</g>

<g fill="#009000" fill-opacity="1" stroke="#ff0000" stroke-opacity="1" stroke-width="2" stroke-linecap="square" stroke-linejoin="bevel" transform="matrix(0,-1,1,0,15,15)"
font-family="Noto Sans" font-size="16" font-weight="400" font-style="normal" 
>
<polyline fill="none" vector-effect="none" points="-5,9 -2,9 " />
<polyline fill="none" vector-effect="none" points="1,9 4,9 " />
</g>

<g fill="#009000" fill-opacity="1" stroke="#ff0000" stroke-opacity="1" stroke-width="2" stroke-linecap="square" stroke-linejoin="bevel" transform="matrix(0.707107,-0.707107,0.707107,0.707107,15,15)"
font-family="Noto Sans" font-size="16" font-weight="400" font-style="normal" 
>
<polyline fill="none" vector-effect="none" points="-3,9.5 0,9.5 " />
</g>

<g fill="#009000" fill-opacity="1" stroke="#ff0000" stroke-opacity="1" stroke-width="2" stroke-linecap="square" stroke-linejoin="bevel" transform="matrix(0,-1,1,0,15,15)"
font-family="Noto Sans" font-size="16" font-weight="400" font-style="normal" 
>
</g>

<g fill="#009000" fill-opacity="1" stroke="#ff0000" stroke-opacity="1" stroke-width="2" stroke-linecap="square" stroke-linejoin="bevel" transform="matrix(0.906308,-0.422618,0.422618,0.906308,15,15)"
font-family="Noto Sans" font-size="16" font-weight="400" font-style="normal" 
>
</g>

<g fill="#009000" fill-opacity="1" stroke="#ff0000" stroke-opacity="1" stroke-width="2" stroke-linecap="square" stroke-linejoin="bevel" transform="matrix(1,0,0,1,17.8973,23.5794)"
font-family="Noto Sans" font-size="16" font-weight="400" font-style="normal" 
>
<polyline fill="none" vector-effect="none" points="-3,1 0,1 " />
</g>

<g fill="#009000" fill-opacity="1" stroke="#ff0000" stroke-opacity="1" stroke-width="2" stroke-linecap="square" stroke-linejoin="bevel" transform="matrix(0.906308,-0.422618,0.422618,0.906308,15,15)"
font-family="Noto Sans" font-size="16" font-weight="400" font-style="normal" 
>
</g>

<g fill="#009000" fill-opacity="1" stroke="#ff0000" stroke-opacity="1" stroke-width="2" stroke-linecap="square" stroke-linejoin="bevel" transform="matrix(0,-1,1,0,15,15)"
font-family="Noto Sans" font-size="16" font-weight="400" font-style="normal" 
>
</g>

<g fill="#009000" fill-opacity="1" stroke="#ff0000" stroke-opacity="1" stroke-width="2" stroke-linecap="square" stroke-linejoin="bevel" transform="matrix(-0.707107,-0.707107,0.707107,-0.707107,15,15)"
font-family="Noto Sans" font-size="16" font-weight="400" font-style="normal" 
>
<polyline fill="none" vector-effect="none" points="-1,9 2,9 " />
</g>

<g fill="#009000" fill-opacity="1" stroke="#ff0000" stroke-opacity="1" stroke-width="2" stroke-linecap="square" stroke-linejoin="bevel" transform="matrix(0,-1,1,0,15,15)"
font-family="Noto Sans" font-size="16" font-weight="400" font-style="normal" 
>
</g>

<g fill="#009000" fill-opacity="1" stroke="#ff0000" stroke-opacity="1" stroke-width="2" stroke-linecap="square" stroke-linejoin="bevel" transform="matrix(-0.906308,-0.422618,0.422618,-0.906308,15,15)"
font-family="Noto Sans" font-size="16" font-weight="400" font-style="normal" 
>
</g>

<g fill="#009000" fill-opacity="1" stroke="#ff0000" stroke-opacity="1" stroke-width="2" stroke-linecap="square" stroke-linejoin="bevel" transform="matrix(-1,0,0,-1,17.8973,6.42061)"
font-family="Noto Sans" font-size="16" font-weight="400" font-style="normal" 
>
<polyline fill="none" vector-effect="none" points="0,0 3,0 " />
</g>

<g fill="#009000" fill-opacity="1" stroke="#ff0000" stroke-opacity="1" stroke-width="2" stroke-linecap="square" stroke-linejoin="bevel" transform="matrix(-0.906308,-0.422618,0.422618,-0.906308,15,15)"
font-family="Noto Sans" font-size="16" font-weight="400" font-style="normal" 
>
</g>

<g fill="#009000" fill-opacity="1" stroke="#ff0000" stroke-opacity="1" stroke-width="2" stroke-linecap="square" stroke-linejoin="bevel" transform="matrix(0,-1,1,0,15,15)"
font-family="Noto Sans" font-size="16" font-weight="400" font-style="normal" 
>
<polyline fill="none" vector-effect="none" points="-6,-7 -3,-7 " />
<polyline fill="none" vector-effect="none" points="2.5,-7 5.5,-7 " />
</g>

<g fill="#009000" fill-opacity="1" stroke="#f0f0f0" stroke-opacity="1" stroke-width="1" stroke-linecap="square" stroke-linejoin="bevel" transform="matrix(1,0,0,1,15,15)"
font-family="Noto Sans" font-size="16" font-weight="400" font-style="normal" 
>
</g>

<g fill="#c0c0c0" fill-opacity="1" stroke="#c0c0c0" stroke-opacity="1" stroke-width="1" stroke-linecap="square" stroke-linejoin="bevel" transform="matrix(1,0,0,1,15,15)"
font-family="Noto Sans" font-size="16" font-weight="400" font-style="normal" 
>
</g>
</g>
</svg>
