/* XPM */
static char *dummy[]={
"50 50 6 1",
". c None",
"# c #000000",
"d c #000099",
"b c #009900",
"c c #cccccc",
"a c #ff0000",
"..................................................",
"....................##########....................",
".................################.................",
"...............#####aaaaaaaaaa#####...............",
".............####aaabbbbbbbbbbaaa####.............",
"...........####aaabbbccccccccbbbaaa####...........",
"..........###aabbbccbccc##cccbccbbbaa###..........",
".........###abbccccccbcc##ccbccccccbba###.........",
"........###abbccc##ccbccccccbcc##cccbba###........",
".......###abccbcc##ccbccccccbcc##cccbcba###.......",
"......###abcccbccccccbbbbbbbbccccccbcccba###......",
".....###abcccccbccccbaaaaaaaabbcccbcccccba###.....",
".....##abccc##ccbcbbaaaaaaaaaaabbcbcc##ccba##.....",
"....##abbccc##ccbbaaaaaaaaaaaaaaabccc##cccba##....",
"....##abcbbccccbaaaaaaaaaaaaaaaaaabccccccbba##....",
"...##abccccbccbaaaaaaaaaaaaaaaaaaaabcccbbccba##...",
"...##abcccccbbaaaaaaaaaaaaaaaaaaaaaabbbccccba##...",
"..##aabc##ccbbaaaaaaaaaaaaaaaaaaaaaaabcc##ccba##..",
"..##abcc##ccbaaaaaaaaaaaaaaaaaaaaaaaabcc##ccba##..",
"..##abccccccbaaaaaaaaaaaaaaaaaaaaaaaabccccccba##..",
".##abbbccccbaaaaaaaaaaaaaaaaaaaaaaaaaabccccbbba##.",
".##abccbbbbbaaaaaaaaaaaaaaaaadddaaaaaabbbbbccba##.",
".##abccccccbaaaaaaaaaaaaaaaaaadddaaaaabccccccba##.",
".##abccccccbaaaaaaaaaaaaaaaaaaadddaaaabccccccba##.",
".##abc##cccbaaaaaaaadddddddddddddddaaabcc##ccba##.",
".##abc##cccbaaaaaaaadddddddddddddddaaabcc##ccba##.",
".##abccccccbaaaaaaaaaaaaaaaaaaadddaaaabccccccba##.",
".##abccccccbaaaaaaaaaaaaaaaaaadddaaaaabccccccba##.",
".##abccbbbbbaaaaaaaaaaaaaaaaadddaaaaaabbbbbccba##.",
".##abbbccccbaaaaaaaaaaaaaaaaaaaaaaaaaabccccbbba##.",
"..##abccccccbaaaaaaaaaaaaaaaaaaaaaaaabccccccba##..",
"..##abcc##ccbaaaaaaaaaaaaaaaaaaaaaaaabcc##ccba##..",
"..##aabc##cccbaaaaaaaaaaaaaaaaaaaaaaabcc##ccba##..",
"...##abcccccbbaaaaaaaaaaaaaaaaaaaaaabbcccccba##...",
"...##abcccbbccbaaaaaaaaaaaaaaaaaaaaabcbccccba##...",
"....##abcbcccccbaaaaaaaaaaaaaaaaaaabcccbbcba##....",
"....##abbcc##cccbaaaaaaaaaaaaaaaaabccccccbba##....",
".....##abcc##ccbcbbaaaaaaaaaaaaabbbc##cccba##.....",
".....###abccccbccccbbaaaaaaaaabbcbcc##ccba###.....",
"......###abcccbccccccbbbbbbbbbccccbccccba###......",
".......###abcbccc##ccbccccccbcc##ccbccba###.......",
"........###abcccc##ccbccccccbcc##cccbba###........",
".........###abbccccccbcc##ccbccccccbba###.........",
"..........###aabbcccbccc##cccbcccbbaa###..........",
"...........####aabbbbccccccccbbbbaa####...........",
".............####aaabbbbbbbbbbaaa####.............",
"...............#####aaaaaaaaaa#####...............",
".................################.................",
"....................##########....................",
".................................................."};
