/* XPM */
static char *dummy[]={
"50 50 7 1",
". c None",
"# c #000000",
"e c #000099",
"c c #009900",
"d c #cccccc",
"b c #ff0000",
"a c #ffffff",
"..........................##########..............",
"........a#.............################...........",
".......a###..........#####bbbbbbbbbb#####.........",
"......a###bc.......####bbbccccccccccbbb####.......",
".....a###bcd.....####bbbcccddddddddcccbbb####.....",
".....###bcddd....##bbcccddcddd##dddcddcccbb###....",
"....a##bcddd##...#bccddddddcdd##ddcddddddccb###...",
"....##bccddd##....ccddd##ddcddddddcdd##dddccb###..",
"...a##bcdccdddd....dcdd##ddcddddddcdd##dddcdcb###.",
"...##bcddddcddc.....cddddddccccccccddddddcdddcb##.",
"..a##bcdddddccbb....dcddddcbbbbbbbbccdddcdddddcb#.",
"..##bbcd##ddccbb.....dcdccbbbbbbbbbbbccdcdd##ddc..",
"..##bcdd##ddcbbb.....dccbbbbbbbbbbbbbbbcddd##ddd..",
".a##bcddddddcbbbb.....bbbbbbbbeebbbbbbbbcdddddd...",
".##bcccddddcbbbbb.......bbbbbeeeebbbbbbbbcdddcc...",
".##bcddcccccbbbbbb......bbbbeeeeeebbbbbbbbcccd....",
".##bcddddddcbbbbbb......bbbeeeeeeeebbbbbbbbcd.....",
".##bcddddddcbbbbbbb.....bbbeebeebeebbbbbbbbc......",
".##bcd##dddcbbbbbbb.....bbbebbeebbebbbbbbbb.......",
".##bcd##dddcbbbbbbb.....bbbbbbeebbbbbbbbbbb.......",
".##bcddddddcbbbbbbbb....bbbbbbeebbbbbbbbbb...##...",
".##bcddddddcbbbbbbbbb....bbbbbeebbbbbbbbb....##...",
".##bcddcccccbbbbbbbbb....bbbbbeebbbbbbbbb...cb##..",
".##bcccddddcbbbbbbbbbb....bbbbeebbbbbbbb...dcb##..",
"..##bcddddddcbbbbbbbbb....bbbbeebbbbbbb...#ddcb##.",
"..##bcdd##ddcbbbbbbbbbb....bbbeebbbbb....##ddcb##.",
"..##bbcd##dddcbbbbbbbbbb...bbbeebbbb.....ddddcb##.",
"...##bcdddddccbbbbbbbb.......beebbb.....ddddcccb##",
"...##bcdddccddcbbbbb.........bbbbb......ccccddcb##",
".....#bcdcdddddc.......................cddddddcb##",
"......................................bcddddddcb##",
"....................................bbbcdd##ddcb##",
"...................................bbbbcdd##ddcb##",
"........................b.........bbbbbcddddddcb##",
".....................bbbbb.......bbbbbbcddddddcb##",
"................bbbbbbbbbbb......bbbbbbcccccddcb##",
"#.............bbbbbbbbbbbbbb....bbbbbbbcddddcccb##",
"##b.....#dddcbbbbbbbbbbbbbbbb..bbbbbbbcddddddcb##.",
".##bcdd##ddcdccbbbbbbbbbbbbbc..bbbbbbbcdd##ddcb##.",
".###bcddddcddddccbbbbbbbbbccdc..bbbbbbcdd##ddcb##.",
"..###bcdddcddddddcccccccccddddc...bbbccdddddcb##..",
"...###bcdcddd##ddcddddddcdd##ddc...bbcdcddddcb##..",
"....###bcdddd##ddcddddddcdd##ddd....cdddccdcb##...",
".....###bccddddddcdd##ddcddddddcc....dddddccb##...",
"......###bbccdddcddd##dddcdddccbb#....#dddcb##....",
".......####bbccccddddddddccccbb####....ddcb###....",
".........####bbbccccccccccbbb####aa......b###.....",
"...........#####bbbbbbbbbb#####aa..........#......",
".............################a....................",
"................##########........................"};
