/* XPM */
static char * pioneer3atcrash_xpm[] = {
"50 50 3 1",
" 	c None",
".	c #FF0000",
"+	c #0000FF",
"        ......            ......                  ",
"        ......            ......                  ",
"  ............            ......            ......",
"  ............            ......            ......",
"  ............          ........            ......",
"  ............          ........            ......",
"  ......  ......        ..........        ........",
"  ......  ......        ..........        ........",
"  ....    ......                ..        ........",
"  ....    ......                ..        ........",
"  ....      ......      ++++++  ..        ........",
"  ....      ......      ++++++  ..        ........",
"  ....    ........      ++++++  ..        ........",
"  ....    ........      ++++++  ..        ........",
"  ................      ++++++  ..        ........",
"  ................      ++++++  ..        ........",
"  ..................  ++++++++  ..        ........",
"  ..................  ++++++++  ..        ........",
"  ..................            ..      ..........",
"  ..................            ..      ..........",
"  ..................................    ..........",
"  ..................................    ..........",
"                  ........      ....  ............",
"                  ........      ....  ............",
"        ......          ....        ..............",
"        ......          ....        ..............",
"        ..............  ......          ..........",
"        ..............  ......          ..........",
"          ............  ......            ........",
"          ............  ......            ........",
"          ............  ........              ....",
"          ............  ........              ....",
"              ........  ..........                ",
"              ........  ..........                ",
"  ......                ............              ",
"  ......                ............              ",
"  ..................................              ",
"  ..................................              ",
"  ....................................            ",
"  ....................................            ",
"  ........................................        ",
"  ........................................        ",
"  ........                  ..............        ",
"  ........                  ..............        ",
"  ....                          ............      ",
"  ....                          ............      ",
"  ..                              ............    ",
"  ..                              ............    ",
"                                                  ",
"                                                  "};
