/* XPM */
static char * pioneer3at_xpm[] = {
"50 50 4 1",
" 	c None",
".	c #000000",
"+	c #FF0000",
"@	c #3232FF",
"    ..........................................    ",
"    ..........................................    ",
"    ..++++............++++++............++++..    ",
"    ..++++............++++++............++++..    ",
"  ....++++............++++++............++++....  ",
"  ....++++............++++++............++++....  ",
"  ..++++++............++++++............++++++..  ",
"  ..++++++............++++++............++++++..  ",
"....++++++++++++++++++++++++++++++++++++++++++....",
"....++++++++++++++++++++++++++++++++++++++++++....",
"..++++++++++++++++++++++++++++++++++++++++++++++..",
"..++++++++++++++++++++++++++++++++++++++++++++++..",
"..++++++++++++++++++++++++++++++++++++++++++++++..",
"..++++++++++++++++++++++++++++++++++++++++++++++..",
"..++++++++++++++++++++++++++++++++++++++++++++++..",
"..++++++++++++++++++++++++++++++++++++++++++++++..",
"..++++++++++++++++++++++++++++++++++++++++++++++..",
"..++++++++++++++++++++++++++++++++++++++++++++++..",
"..++++++++++++++++++++++++++@@@@@@@@@@@@@@++++++..",
"..++++++++++++++++++++++++++@@@@@@@@@@@@@@++++++..",
"..++++++++++++++++++++++++++@@@@@@@@@@@@@@++++++..",
"..++++++++++++++++++++++++++@@@@@@@@@@@@@@++++++..",
"..++++++++++++++++++++++++++@@@@@@@@@@@@@@++++++..",
"..++++++++++++++++++++++++++@@@@@@@@@@@@@@++++++..",
"..++++++++++++++++++++++++++@@@@@@@@@@@@@@++++++..",
"..++++++++++++++++++++++++++@@@@@@@@@@@@@@++++++..",
"..++++++++++++++++++++++++++@@@@@@@@@@@@@@++++++..",
"..++++++++++++++++++++++++++@@@@@@@@@@@@@@++++++..",
"..++++++++++++++++++++++++++@@@@@@@@@@@@@@++++++..",
"..++++++++++++++++++++++++++@@@@@@@@@@@@@@++++++..",
"..++++++++++++++++++++++++++@@@@@@@@@@@@@@++++++..",
"..++++++++++++++++++++++++++@@@@@@@@@@@@@@++++++..",
"..++++++++++++++++++++++++++++++++++++++++++++++..",
"..++++++++++++++++++++++++++++++++++++++++++++++..",
"..++++++++++++++++++++++++++++++++++++++++++++++..",
"..++++++++++++++++++++++++++++++++++++++++++++++..",
"..++++++++++++++++++++++++++++++++++++++++++++++..",
"..++++++++++++++++++++++++++++++++++++++++++++++..",
"..++++++++++++++++++++++++++++++++++++++++++++++..",
"..++++++++++++++++++++++++++++++++++++++++++++++..",
"....++++++++++++++++++++++++++++++++++++++++++....",
"....++++++++++++++++++++++++++++++++++++++++++....",
"  ..++++++............++++++............++++++..  ",
"  ..++++++............++++++............++++++..  ",
"  ....++++............++++++............++++....  ",
"  ....++++............++++++............++++....  ",
"    ..++++............++++++............++++..    ",
"    ..++++............++++++............++++..    ",
"    ..........................................    ",
"    ..........................................    "};
