/* XPM */
static const char * robotcrash_xpm[] = {
"30 30 11 1",
" 	c None",
".	c #808080",
"+	c #F0F0F0",
"@	c #FF0000",
"#	c #009000",
"$	c #C0C0C0",
"%	c #FFFFFF",
"&	c #FF4040",
"*	c #FD0000",
"=	c #079007",
"-	c #A0A0A0",
"                              ",
"          .+                  ",
"         .+@   ...##          ",
" ###     ##@   +$###########  ",
" ####    ###       ########## ",
" #####   ####%$.    ######### ",
" ######   ###%$.    ###%%###  ",
"%%@@###   ###%$.   ####$$+++  ",
"$$&@##%%  #####.   ####.....  ",
".$$$$$$     ####  #@@#        ",
" ......      ### #&@##        ",
"             ### ####  .$+    ",
"              ## ###  .$+##   ",
"                #### .$+###   ",
"  %%+$          ###  $+####   ",
"  $$$###    #&@      $##&@##  ",
"  $*@###    #@&#  #######@@## ",
"  #@&##     ###    ####&####  ",
" ######    ####      #&@#+$$  ",
"#######    ####        ##+.   ",
"%%%####    ####         #+.   ",
"$$$#&@#    ####   ##     $.   ",
"... &@#   #####   ####        ",
"    =#    +#####  ####        ",
"    ++    %#####   ####@      ",
"    $$    %-####   ####@@     ",
"    ...   ..##@@#   ####+$    ",
"           .##&@#   ###+$.    ",
"            +++      #+$.     ",
"            ...       $$.     "};
