/* XPM */
static const char * addiso_xpm[] = {
"32 32 13 1",
" 	c None",
".	c #05C605",
"+	c #000000",
"@	c #EC49E2",
"#	c #EC50E2",
"$	c #EC5BE3",
"%	c #EC68E4",
"&	c #EC78E5",
"*	c #EC8AE6",
"=	c #ED9EE8",
"-	c #EDB2EA",
";	c #EDC7EB",
">	c #EDDCEC",
" ....                      ...  ",
"   ...                    ...   ",
"    ...                  ...    ",
"     ...                ...     ",
"      ...              ..       ",
"       ..             ..        ",
"  ++++++++++++++++++++++++++++  ",
"  +@@@@@@@@@@@@@@@@@@@@@@@@@#+  ",
"  +@#######################$#+  ",
"  +@#$$$$$$$$$$$$$$$$$$$$$%$#+  ",
"  +@#$%%%%%%%%%%%%%%%%%%%&%$#+  ",
"  +@#$%&&&&&&&&&&&&&&&&&*&%$#+  ",
"  +@#$%&***************=*&%$#+  ",
"  +@#$%&*=============-=*&%$#+  ",
"  +@#$%&*=-----------;-=*&%$#+  ",
"  +@#$%&*=-;;;;;;;;;>;-=*&%$#+  ",
"  +@#$%&*=->>>>>>>>>>;-=*&%$#+  ",
"  +@#$%&*=;;;;;;;;;;;;-=*&%$#+  ",
"  +@#$%&*--------------=*&%$#+  ",
"  +@#$%&================*&%$#+  ",
"  +@#$%******************&%$#+  ",
"  +@#$&&&&&&&&&&&&&&&&&&&&%$#+  ",
"  +@#%%%%%%%%%%%%%%%%%%%%%%$#+  ",
"  +@$$$$$$$$$$$$$$$$$$$$$$$$#+  ",
"  +##########################+  ",
"  ++++++++++++++++++++++++++++  ",
"        ...   ..       ...      ",
"        ..    ..        ..      ",
"      ...      ..       ..      ",
"     ...       ..        ..     ",
"    ....       ...        ..    ",
"   ...          ..        ..    "};
