/* XPM */
static char * addnetwork2_xpm[] = {
"32 32 228 2",
"  	c None",
". 	c #B19A19",
"+ 	c #F6D623",
"@ 	c #F7D626",
"# 	c #F7D830",
"$ 	c #F7DA3A",
"% 	c #F7DC44",
"& 	c #F8DE4E",
"* 	c #F8E058",
"= 	c #F9E263",
"- 	c #F9E36C",
"; 	c #FAE576",
"> 	c #FAE781",
", 	c #FAE98B",
"' 	c #FBEB95",
") 	c #FBED9F",
"! 	c #FBEEA9",
"~ 	c #B4AA6C",
"{ 	c #F6D523",
"] 	c #F6D624",
"^ 	c #F7D72C",
"/ 	c #F7DA36",
"( 	c #F8DB40",
"_ 	c #F8DD4B",
": 	c #F8DF55",
"< 	c #F8E05F",
"[ 	c #F9E369",
"} 	c #F9E473",
"| 	c #FAE77D",
"1 	c #FAE887",
"2 	c #FBEA91",
"3 	c #FBED9C",
"4 	c #FBEEA5",
"5 	c #FCF0AF",
"6 	c #FCF2B9",
"7 	c #B5AB76",
"8 	c #F6D729",
"9 	c #F6D933",
"0 	c #F7DB3D",
"a 	c #F8DD47",
"b 	c #F8DE51",
"c 	c #F8E05B",
"d 	c #F9E265",
"e 	c #F9E46F",
"f 	c #F9E67A",
"g 	c #FAE884",
"h 	c #FAEA8E",
"i 	c #FBEB97",
"j 	c #FBEDA1",
"k 	c #FBF0AC",
"l 	c #FCF1B5",
"m 	c #FCF4C0",
"n 	c #FDF6CA",
"o 	c #F6D625",
"p 	c #746615",
"q 	c #0A0901",
"r 	c #CAB857",
"s 	c #6E6635",
"t 	c #9D966D",
"u 	c #FCF3BC",
"v 	c #FDF5C6",
"w 	c #FDF6D0",
"x 	c #BAA327",
"y 	c #514814",
"z 	c #3F391A",
"A 	c #F8E57B",
"B 	c #B9AB62",
"C 	c #514C2B",
"D 	c #676143",
"E 	c #D0C797",
"F 	c #FCF4C3",
"G 	c #FDF6CD",
"H 	c #FDF7D7",
"I 	c #F6D524",
"J 	c #F7D628",
"K 	c #F7D932",
"L 	c #F7DA3C",
"M 	c #EDD343",
"N 	c #0D0C02",
"O 	c #A09451",
"P 	c #FAEA8D",
"Q 	c #F0E291",
"R 	c #272515",
"S 	c #FDF3BF",
"T 	c #FDF4CA",
"U 	c #FDF7D4",
"V 	c #FEF9DE",
"W 	c #F7D82F",
"X 	c #F7DA38",
"Y 	c #F7DB43",
"Z 	c #F8DE4D",
"` 	c #2E2A0F",
" .	c #524A21",
"..	c #1E1C0C",
"+.	c #ECDC8B",
"@.	c #FBED9D",
"#.	c #2E2C1C",
"$.	c #FCF2BC",
"%.	c #FDF4C6",
"&.	c #FDF7D0",
"*.	c #FDF8DA",
"=.	c #FEFAE4",
"-.	c #F6D72B",
";.	c #F7D935",
">.	c #F7DB3E",
",.	c #F7DD49",
"'.	c #F8DF53",
").	c #2E2A10",
"!.	c #DAC862",
"~.	c #110F04",
"{.	c #736C44",
"].	c #FBEEA4",
"^.	c #2F2C1C",
"/.	c #FCF4C2",
"(.	c #FDF6CC",
"_.	c #FEF7D6",
":.	c #FEF9E1",
"<.	c #FEFCEB",
"[.	c #F6D832",
"}.	c #F7DA3B",
"|.	c #F7DC45",
"1.	c #F7DE4F",
"2.	c #F8E05A",
"3.	c #2E2A11",
"4.	c #FAE578",
"5.	c #847A42",
"6.	c #0C0B02",
"7.	c #D2C78D",
"8.	c #2F2C1D",
"9.	c #FDF5C9",
"0.	c #FEF6D2",
"a.	c #FDF9DD",
"b.	c #FEFBE7",
"c.	c #FFFCF1",
"d.	c #F7D938",
"e.	c #F7DC42",
"f.	c #F8DE4C",
"g.	c #F8DF56",
"h.	c #F9E160",
"i.	c #2E2A12",
"j.	c #FAE77E",
"k.	c #F2E183",
"l.	c #2B2815",
"m.	c #45422C",
"n.	c #2F2D1E",
"o.	c #FDF6CF",
"p.	c #FDF8D9",
"q.	c #FEFAE3",
"r.	c #FEFBED",
"s.	c #FFFEF7",
"t.	c #F8DD49",
"u.	c #F8DE53",
"v.	c #F9E05D",
"w.	c #F9E367",
"x.	c #2E2A13",
"y.	c #FAEA8F",
"z.	c #B6AA6D",
"A.	c #2F2D20",
"B.	c #FDF8D6",
"C.	c #FDF9E0",
"D.	c #FEFBEA",
"E.	c #FFFDF4",
"F.	c #FFFFFE",
"G.	c #F8DD4F",
"H.	c #F9E059",
"I.	c #F9E36D",
"J.	c #2E2A14",
"K.	c #FBE98B",
"L.	c #565136",
"M.	c #FEF9DC",
"N.	c #FEFAE6",
"O.	c #FEFCF0",
"P.	c #FFFEFB",
"Q.	c #FFFFFF",
"R.	c #F7DE4B",
"S.	c #EFDB6E",
"T.	c #262310",
"U.	c #FBEB92",
"V.	c #FBEC9C",
"W.	c #FCEEA6",
"X.	c #DED49B",
"Y.	c #121107",
"Z.	c #2F2D22",
"`.	c #FFFEF6",
" +	c #F7DE52",
".+	c #F9E15C",
"++	c #BCAC53",
"@+	c #544D26",
"#+	c #66603B",
"$+	c #CBC082",
"%+	c #FCEFAD",
"&+	c #FCF2B6",
"*+	c #898365",
"=+	c #FEFAE9",
"-+	c #FFFDF3",
";+	c #FFFFFD",
">+	c #F8DF58",
",+	c #F8E262",
"'+	c #F9E46C",
")+	c #766C36",
"!+	c #948D61",
"~+	c #FCF1B3",
"{+	c #FCF3BD",
"]+	c #F5EDC1",
"^+	c #2F2E23",
"/+	c #FFFCEF",
"(+	c #FEFEFA",
"_+	c #B2A03B",
":+	c #F9E573",
"<+	c #FBED9B",
"[+	c #FCF2BA",
"}+	c #FCF4C4",
"|+	c #FDF9E2",
"1+	c #FEFBEC",
"2+	c #FFFDF6",
"3+	c #B6B299",
"4+	c #B2A245",
"5+	c #F9E579",
"6+	c #F9E883",
"7+	c #FBEC97",
"8+	c #FBEFAC",
"9+	c #FCF1B6",
"0+	c #FDF3C0",
"a+	c #FDF5CA",
"b+	c #FEF7D4",
"c+	c #FEFAE8",
"d+	c #FFFDF2",
"e+	c #FFFEFC",
"                                                                ",
"                                                                ",
"                                                                ",
"                                                                ",
"                                                                ",
"                                                                ",
"                                                                ",
"                                                                ",
"              . + + @ # $ % & * = - ; > , ' ) ! ~               ",
"            . { ] + ^ / ( _ : < [ } | 1 2 3 4 5 6 7             ",
"            { ] ] 8 9 0 a b c d e f g h i j k l m n             ",
"            ] + o p q q q q q r ; s q q q q t u v w             ",
"            + ] ^ x y q q q q z A B C q q D E F G H             ",
"            I J K L M q N q q q O P Q q R l S T U V             ",
"            ] W X Y Z q `  .q q ..+.@.q #.$.%.&.*.=.            ",
"            -.;.>.,.'.q ).!.~.q q {.].q ^./.(._.:.<.            ",
"            [.}.|.1.2.q 3.4.5.q q 6.7.q 8.9.0.a.b.c.            ",
"            d.e.f.g.h.q i.j.k.l.q q m.q n.o.p.q.r.s.            ",
"            >.t.u.v.w.q x.g y.z.q q q q A.B.C.D.E.F.            ",
"            % G.H.= I.q J.K.' ) L.q q q A.M.N.O.P.Q.            ",
"            R.g.h.[ S.q T.U.V.W.X.Y.q q Z.q.r.`.Q.Q.            ",
"             +.+d ++@+q q #+$+%+&+*+q q Z.=+-+;+Q.Q.            ",
"            >+,+'+)+q q q q !+~+{+]+A.q ^+/+(+Q.Q.Q.            ",
"            _+[ :+| 1 2 <+4 5 [+}+G H |+1+2+Q.Q.Q.3+            ",
"              4+5+6+P 7+j 8+9+0+a+b+V c+d+e+Q.Q.3+              ",
"                                                                ",
"                                                                ",
"                                                                ",
"                                                                ",
"                                                                ",
"                                                                ",
"                                                                "};
