/* XPM */
static char * addnetwork_xpm[] = {
"32 32 65 1",
" 	c None",
".	c #05C605",
"+	c #000000",
"@	c #5C1D00",
"#	c #982F01",
"$	c #9C3601",
"%	c #9D3801",
"&	c #9B3501",
"*	c #972F02",
"=	c #9C3102",
"-	c #AA4902",
";	c #AE4F02",
">	c #5F2200",
",	c #A03A02",
"'	c #B45602",
")	c #BB6102",
"!	c #BD6302",
"~	c #9C3602",
"{	c #B75A02",
"]	c #C26B02",
"^	c #C97403",
"/	c #CB7703",
"(	c #D07E03",
"_	c #D68603",
":	c #D88903",
"<	c #912602",
"[	c #E29603",
"}	c #E39903",
"|	c #D68703",
"1	c #C97503",
"2	c #EDA603",
"3	c #F0AA03",
"4	c #E79E03",
"5	c #DC8F03",
"6	c #993102",
"7	c #F4B103",
"8	c #F8B603",
"9	c #F2AD03",
"0	c #EAA203",
"a	c #E09403",
"b	c #D48303",
"c	c #C77103",
"d	c #B85D02",
"e	c #A33D01",
"f	c #FAB803",
"g	c #FDBD03",
"h	c #F9B703",
"i	c #F4AF03",
"j	c #ECA403",
"k	c #E29703",
"l	c #9D3802",
"m	c #FFBF03",
"n	c #F4B003",
"o	c #E39803",
"p	c #D88803",
"q	c #AD4D02",
"r	c #A43E02",
"s	c #A23E02",
"t	c #9B3002",
"u	c #A13B02",
"v	c #A84302",
"w	c #A94502",
"x	c #9D3202",
"y	c #A43F02",
"z	c #A54002",
"       ...             ..       ",
"..      ...            ..       ",
"....     ...          ..        ",
" ....     ..          ..     ...",
"   ..      ..        ..    .....",
"   ..      ..++++++  ..    ..   ",
"   ..     ++@#$%%&*@+..  ...    ",
"   ...   +=-;;;;;;;;->+  ..     ",
"    ... +,')!!!!!!!!)'~+..      ",
"     ..+,{]^////////^]{~+.      ",
"       >'](_::::::::_(]'<+      ",
"      +-)^_[}}}}}}}}[|1)-+      ",
"      @;!/:}2222222345(]'>      ",
"     +6;!/:}277777890abcde+     ",
"     +~;!/:}27fffghijk|1)-+     ",
"     +l;!/:}27fgmgfn2op/!q+     ",
"     +l;!/:}27fmmgfn2op/!q+     ",
"     +~;!/:}27gggghijk|1)-+     ",
"     +6;!/:}28hffh890abcdr+     ",
"      @;!/:}39inni9345(]'>      ",
"      +-)^_[40j22j04k(]'s+      ",
"      +t'](|5akooka5|(]'>       ",
"       +u{]1(b|pp|b(1]!v+..     ",
"       .+u')]c1//1c])'w+....    ",
"       ..+>-'d)!!)d'-x+    ..   ",
"      ..   +>y-qq-z>++      ..  ",
"      ..   ..++++++..       ..  ",
"     ..   ...      ..        .. ",
"  .....   ..        ..       .. ",
".....    ...         ...      ..",
"..      ...           ...     ..",
"        ..             ..       "};
