/* XPM */
static const char * addsynapse[] = {
"32 32 40 1",
" 	c None",
".	c #D91A01",
"+	c #C02C02",
"@	c #B73303",
"#	c #D34002",
"$	c #CB6003",
"%	c #C65503",
"&	c #DC8603",
"*	c #E39603",
"=	c #D47403",
"-	c #C24B03",
";	c #E9A303",
">	c #F0B403",
",	c #E7A003",
"'	c #DA8103",
")	c #C95A03",
"!	c #F4BC03",
"~	c #F1B503",
"{	c #CB5F03",
"]	c #955F02",
"^	c #656401",
"/	c #52B705",
"(	c #1873C6",
"_	c #226EB0",
":	c #236EAF",
"<	c #3581C5",
"[	c #4189C7",
"}	c #5B9FDC",
"|	c #66A9E4",
"1	c #4F95D2",
"2	c #237DCF",
"3	c #6EB1EB",
"4	c #79BBF4",
"5	c #6CAFEA",
"6	c #589DD9",
"7	c #3B84C5",
"8	c #7FBFF8",
"9	c #7ABCF5",
"0	c #5A9FDB",
"a	c #4188C7",
"                                ",
"                                ",
"                                ",
"     .+@+@                      ",
"    #$$$$$%                     ",
"   .$&&&&*=-                    ",
"   +$&;;>,')                    ",
"   @$&;!~;&{                    ",
"   +$&>~>,')                    ",
"   @$*,;,*=-                    ",
"    %='&'=]                     ",
"     -){)^//                    ",
"          ///                   ",
"           ///                  ",
"            ///                 ",
"             ///   /            ",
"              /// //            ",
"               /////            ",
"                ////            ",
"               /////            ",
"              ////// (_:_(      ",
"                    <[[[[[<     ",
"                   ([}}}}|12    ",
"                   _[}334567    ",
"                   :[}38930a    ",
"                   _[}494567    ",
"                   ([|535|12    ",
"                    <16061<     ",
"                     27a72      ",
"                                ",
"                                ",
"                                "};

