/* XPM */
static const char * buildnet[] = {
"32 32 33 1",
" 	c None",
".	c #D23D02",
"+	c #C45103",
"@	c #DC2E01",
"#	c #D43901",
"$	c #E39201",
"%	c #F3B500",
"&	c #E46401",
"*	c #EA4C00",
"=	c #E55E00",
"-	c #FFCC00",
";	c #F7BC00",
">	c #E39101",
",	c #63D606",
"'	c #2828C8",
")	c #3535B8",
"!	c #5E5ED7",
"~	c #7575E8",
"{	c #405F9E",
"]	c #1E1ED5",
"^	c #AFAFF7",
"/	c #7A7AEC",
"(	c #4040DB",
"_	c #B8CF0B",
":	c #B3CC0C",
"<	c #DBE705",
"[	c #F0F502",
"}	c #D2E107",
"|	c #DCE805",
"1	c #FFFF00",
"2	c #F5F801",
"3	c #DAE605",
"4	c #D5E306",
"                                ",
"                                ",
"                                ",
"    .+.     @+@    #+#    @+@   ",
"   .$$%&   @$$%*  #$$%=  @$$%*  ",
"   +$-;>   +$-;>  +$-;>  +$-;>  ",
"   .%;%&   @%;%*  #%;%=  @%;%*  ",
"    &>&     *>*    =>=     >*,  ",
"     ,,       ,,   ,,       ,,  ",
"     ,,       ,,   ,,      ,,   ",
"      ,,       ,,,,,       ,,   ",
"      ,,        ,,,,       ,,   ",
"      ,,         ,,        ,,   ",
"       ,,       ,,,,      ,,    ",
"       ,')'     ,,,,,')'  ,,    ",
"       '!!~{   ,,  ,]!!~{ ,,    ",
"       )!^/!  ,,,   )!^/!,,,    ",
"       '~/~(  ,,    ]~/~(,,     ",
"       ,(!(  ,,,     (!( ,,     ",
"       ,,    ,,          ,,     ",
"      ,,,   ,,          ,,      ",
"      ,,,  ,,,          ,,      ",
"      ,,   ,,           ,,      ",
"      ,,  ,,,           ,,      ",
"      ,_::,,          ::,       ",
"      :<<[}          :<<[|      ",
"      :<123          :<123      ",
"      :[2[}          :[2[|      ",
"       43}            }3|       ",
"                                ",
"                                ",
"                                "};

