/* XPM */
static const char * clearnet[] = {
"32 32 46 1",
" 	c None",
".	c #000000",
"+	c #454343",
"@	c #3E3D3D",
"#	c #383737",
"$	c #313131",
"%	c #2B2B2B",
"&	c #4B4A4A",
"*	c #EEEEEE",
"=	c #EDEDED",
"-	c #ECECEC",
";	c #EBEBEB",
">	c #E9E9E9",
",	c #FFCC00",
"'	c #F0F0F0",
")	c #EFEFEF",
"!	c #F7BC00",
"~	c #F3F3F3",
"{	c #F2F2F2",
"]	c #F5F5F5",
"^	c #F4F4F4",
"/	c #F7F7F7",
"(	c #F6F6F6",
"_	c #FAFAFA",
":	c #F9F9F9",
"<	c #FBFBFB",
"[	c #FFFFFF",
"}	c #FDFDFD",
"|	c #FCFCFC",
"1	c #63D606",
"2	c #2828C8",
"3	c #5E5ED7",
"4	c #7575E8",
"5	c #405F9E",
"6	c #AFAFF7",
"7	c #7A7AEC",
"8	c #1E1ED5",
"9	c #4040DB",
"0	c #B8CF0B",
"a	c #B3CC0C",
"b	c #F0F502",
"c	c #D2E107",
"d	c #DCE805",
"e	c #F5F801",
"f	c #DAE605",
"g	c #FFFF00",
"                     .+@#$%%%.% ",
"                    ..&&+@#$..%.",
"                   ..&&&&&+..$..",
"                  ..........+.. ",
"                 ..*=-;>>.....  ",
"     ,          ..')*=-;..>..   ",
"             ! ..~{')*=..>>.    ",
"              ..]^~{')*.-;..    ",
"             ../(]^~{'..=..     ",
"            .._:/(]^~..)..      ",
"            ..<_:/(]..{..       ",
"            .........^~.        ",
"           ..[}|<_:..].         ",
"           .[[[}|<_:...         ",
"       1   ...........          ",
"       233             45  1    ",
"         673          673  1    ",
"              11    847 911     ",
"       193   111     939 11     ",
"       11    1                  ",
"      111                       ",
"                        11      ",
"            1           11      ",
"      11    1           11      ",
"      10  1           aa1       ",
"         bc          a  bd      ",
"         ef          a gef      ",
"        ebc          abebd      ",
"        fc            cfd       ",
"                                ",
"                                ",
"                                "};

