/* XPM */
static char * motor_neuron_sel_ico_xpm[] = {
"21 21 12 1",
" 	c None",
".	c #B9CB58",
"+	c #C0D068",
"@	c #C7D579",
"#	c #CEDB8A",
"$	c #D5E09A",
"%	c #DCE5AB",
"&	c #E3EABC",
"*	c #EAEFCC",
"=	c #F1F4DD",
"-	c #F8FAEE",
";	c #FFFFFF",
"                     ",
"      .++++++++      ",
"    ..+@@@@@@@@@+    ",
"   .++@@#######@@+   ",
"  ..+@##$$$$$$$##@+  ",
"  .+@##$%%%%%%%$##@  ",
" .+@@#$%%&&&&&%%$#@@ ",
" .+@#$%%&*****&%%$#@ ",
" .+@#$%&*=====*&%$#@ ",
" .+@#$%&*=---=*&%$#@ ",
" .+@#$%&*=-;-=*&%$#@ ",
" .+@#$%&*=---=*&%$#@ ",
" .+@#$%&*=====*&%$#@ ",
" .+@#$%%&*****&%%$#@ ",
" .+@@#$%%&&&&&%%$#@@ ",
"  .+@##$%%%%%%%$##@  ",
"  ..+@##$$$$$$$##@+  ",
"   .++@@#######@@+   ",
"    ..+@@@@@@@@@+    ",
"      .++++++++      ",
"                     "};
