/* XPM */
static char * subnet_del_ico_xpm[] = {
"32 32 36 1",
" 	c None",
".	c #808080",
"+	c #FFFFFF",
"@	c #C0C0C0",
"#	c #D23D02",
"$	c #C45103",
"%	c #DC2E01",
"&	c #D43901",
"*	c #E39201",
"=	c #F3B500",
"-	c #E46401",
";	c #EA4C00",
">	c #E55E00",
",	c #FFCC00",
"'	c #F7BC00",
")	c #E39101",
"!	c #2828C8",
"~	c #3535B8",
"{	c #5E5ED7",
"]	c #7575E8",
"^	c #405F9E",
"/	c #1E1ED5",
"(	c #AFAFF7",
"_	c #7A7AEC",
":	c #4040DB",
"<	c #000000",
"[	c #FFFF40",
"}	c #B8CF0B",
"|	c #B3CC0C",
"1	c #DBE705",
"2	c #F0F502",
"3	c #D2E107",
"4	c #FFFF00",
"5	c #F5F801",
"6	c #DAE605",
"7	c #D5E306",
"  ...........................   ",
" .+++++++++++++++++++++++++++.  ",
" .+++++++++++++++++++++++++++.@ ",
" .++++#$#+++++%$%+++++&$&++++.@ ",
" .+++#**=-+++%**=;+++&**=>+++.@ ",
" .+++$*,')+++$*,')+++$*,')+++.@ ",
" .+++#='=-+++%='=;+++&='=>+++.@ ",
" .++++-)-+++++;);+++++>)>++++.@ ",
" .+++++.+++++++.+++++++.+++++.@ ",
" .+++++.+++++++.+++++++.+++++.@ ",
" .+++++.+++++++.+++++++.+++++.@ ",
" .+++++.+++++++.+++++++.+++++.@ ",
" .+++++.+++++++.+++++++.+++++.@ ",
" .+++++.++!~!++.++!~!++.+++++.@ ",
" .+++++.+!{{]^+.+/{{]^+.+++++.@ ",
" .+++++..~{(_{...~{(_{..+++++.@ ",
" .+++++++!]_]:+++/]_]:+++++++.@ ",
" .++++++++:{:++++++++++++++++.@ ",
" .+++++++++.++++<<<<<<<<<<<<<<< ",
" .+++++++++.++++<[[[[[[[[[[[[[< ",
" .+++++++++.++++<[[[[[[[[[[[[[< ",
" .+++++++++.++++<[[[[[[[[[[[[[< ",
" .+++++++++.++++<[[[[[[[[[[[[[< ",
" .++++}||++.++++<[[[[[[[[[[[[[< ",
" .+++|1123+.++++<[[[<<<<<<<[[[< ",
" .+++|1456..++++<[[[<<<<<<<[[[< ",
" .+++|2523++++++<[[[[[[[[[[[[[< ",
" .++++763+++++++<[[[[[[[[[[[[[< ",
" .++++++++++++++<[[[[[[[[[[[[[< ",
" .++++++++++++++<[[[[[[[[[[[[[< ",
"  ..............<[[[[[[[[[[[[[< ",
"   @@@@@@@@@@@@@<<<<<<<<<<<<<<< "};
