/* XPM */
static const char * delneuron[] = {
"32 32 61 1",
" 	c None",
".	c #05C605",
"+	c #000000",
"@	c #350D00",
"#	c #8D1D01",
"$	c #8E2101",
"%	c #8E2201",
"&	c #8D2001",
"*	c #891B02",
"=	c #982902",
"-	c #9D3602",
";	c #A13D02",
">	c #371000",
",	c #972C02",
"'	c #A84602",
")	c #B05203",
"!	c #B35503",
"~	c #8F2302",
"{	c #AB4B03",
"]	c #B95E03",
"^	c #C16903",
"/	c #C36C03",
"(	c #C87403",
"_	c #D07E03",
":	c #D28103",
"<	c #9E3702",
"[	c #DD9104",
"}	c #DF9304",
"|	c #EAA304",
"1	c #902302",
"2	c #F3AF04",
"3	c #8E2102",
"4	c #F9B804",
"5	c #8E2202",
"6	c #D18003",
"7	c #B25503",
"8	c #A03B02",
"9	c #8F2202",
"0	c #F9B704",
"a	c #F2AE04",
"b	c #E9A104",
"c	c #F7B604",
"d	c #F0AB04",
"e	c #E79E04",
"f	c #DB8D04",
"g	c #CD7A03",
"h	c #BE6503",
"i	c #AD4D03",
"j	c #9B2C02",
"k	c #EEA804",
"l	c #E39904",
"m	c #D78804",
"n	c #C97403",
"o	c #952A02",
"p	c #992E02",
"q	c #A03602",
"r	c #A33902",
"s	c #9E3802",
"t	c #992A02",
"u	c #9B3102",
"v	c #9E3402",
"       ...             ..       ",
"..      ...            ..       ",
"....     ...          ..        ",
" ....     ..          ..     ...",
"   ..      ..        ..    .....",
"   ..      ..++++++  ..    ..   ",
"   ..     ++@#$%%&*@+..  ...    ",
"   ...   +=-;;;;;;;;->+  ..     ",
"    ... +,')!!!!!!!!)'~+.. +++  ",
"     ..+,{]^////////^]{~++++++  ",
"       >'](_::::::::_(]++++++++ ",
"      +<)^_[}}}}}}}}[++++++++   ",
"      @;!/:}|||||||++++++++     ",
"     +1;!/:}|2222++++++++++     ",
"     +3;!/:}|24+++++++++)-+     ",
"     +5;!/:}|++++++++}6/78+     ",
"     +5;!/:+++++++++|}6/78+     ",
"     +9;!+++++++++0ab[_^)-+     ",
"     +1++++++++440cdefghij+     ",
"     ++++++++da22adklmn]'>      ",
"   +++++++++leb||bel[n]'o+      ",
"  ++++++++(_mf[}}[fm_n]'>       ",
"  ++++++p{]^ng_66_gn^]!q+..     ",
"  +++  .+p')]h^//^h])'r+....    ",
"       ..+>s'i)77)i'<t+    ..   ",
"      ..   +>u<88<v>++      ..  ",
"      ..   ..++++++..       ..  ",
"     ..   ...      ..        .. ",
"  .....   ..        ..       .. ",
".....    ...         ...      ..",
"..      ...           ...     ..",
"        ..             ..       "};

