/* XPM */
static const char * delsynapse[] = {
"32 32 41 1",
" 	c None",
".	c #D91A01",
"+	c #C02C02",
"@	c #B73303",
"#	c #D34002",
"$	c #CB6003",
"%	c #C65503",
"&	c #DC8603",
"*	c #E39603",
"=	c #D47403",
"-	c #C24B03",
";	c #E9A303",
">	c #F0B403",
",	c #E7A003",
"'	c #DA8103",
")	c #C95A03",
"!	c #161616",
"~	c #F4BC03",
"{	c #F1B503",
"]	c #CB5F03",
"^	c #955F02",
"/	c #656401",
"(	c #52B705",
"_	c #1873C6",
":	c #226EB0",
"<	c #236EAF",
"[	c #3581C5",
"}	c #4189C7",
"|	c #5B9FDC",
"1	c #66A9E4",
"2	c #4F95D2",
"3	c #237DCF",
"4	c #6EB1EB",
"5	c #79BBF4",
"6	c #6CAFEA",
"7	c #589DD9",
"8	c #3B84C5",
"9	c #7FBFF8",
"0	c #7ABCF5",
"a	c #5A9FDB",
"b	c #4188C7",
"                                ",
"                                ",
"                                ",
"     .+@+@                      ",
"    #$$$$$%                     ",
"   .$&&&&*=-                    ",
"   +$&;;>,')         !!!        ",
"   @$&;~{;&]       !!!!!        ",
"   +$&>{>,')      !!!!!!        ",
"   @$*,;,*=-      !!!!!         ",
"    %='&'=^     !!!!!!          ",
"     -)])/((    !!!!!           ",
"          (((  !!!!!            ",
"           ((!!!!!!             ",
"            (!!!!!              ",
"            !!!!!  (            ",
"          !!!!!!( ((            ",
"          !!!!!(((((            ",
"         !!!!!  ((((            ",
"       !!!!!!  (((((            ",
"       !!!!!  (((((( _:<:_      ",
"      !!!!!         [}}}}}[     ",
"      !!!!         _}||||123    ",
"      !!!          :}|445678    ",
"                   <}|4904ab    ",
"                   :}|505678    ",
"                   _}1646123    ",
"                    [27a72[     ",
"                     38b83      ",
"                                ",
"                                ",
"                                "};

