/* XPM */
static const char * editsynapse[] = {
"32 32 40 1",
" 	c None",
".	c #D91A01",
"+	c #C02C02",
"@	c #B73303",
"#	c #D34002",
"$	c #CB6003",
"%	c #0C0C0C",
"&	c #C65503",
"*	c #DC8603",
"=	c #E39603",
"-	c #C24B03",
";	c #E9A303",
">	c #F0B403",
",	c #E7A003",
"'	c #C95A03",
")	c #F1B503",
"!	c #CB5F03",
"~	c #D47403",
"{	c #DA8103",
"]	c #955F02",
"^	c #656401",
"/	c #52B705",
"(	c #353535",
"_	c #1873C6",
":	c #226EB0",
"<	c #236EAF",
"[	c #3581C5",
"}	c #4189C7",
"|	c #5B9FDC",
"1	c #4F95D2",
"2	c #237DCF",
"3	c #6EB1EB",
"4	c #589DD9",
"5	c #3B84C5",
"6	c #7FBFF8",
"7	c #5A9FDB",
"8	c #4188C7",
"9	c #7ABCF5",
"0	c #6CAFEA",
"a	c #66A9E4",
"                                ",
"                                ",
"                                ",
"     .+@+@                      ",
"    #$$$%%&   %%                ",
"   .$**%*=%- %  %               ",
"   +$*;%>,%' %  %               ",
"   @$*;%);%!  %%                ",
"   +$*>)%%%% %  %               ",
"   @$=,;,=%- %  %               ",
"    &~{*%%]%  %%                ",
"     -'!'^//                    ",
"          ///                   ",
"           ///                  ",
"            ///                 ",
"  %   %      %%%   % %  %%      ",
"  %   % %%%  %/%/ /% % %  %     ",
"  %%%%%        %///%%%   %%     ",
"   %(%  %%%    %//// %  %       ",
"   % %         %/%// % %%%%     ",
"              ////// _:<:_      ",
"                 %  [}}}}%[     ",
"                 % _}||||%12    ",
"                 %%:}|33%%45    ",
"                  %<}|36%378    ",
"                  %:%%%9%045    ",
"                  %%%%%%%a12    ",
"                   %%1%%41[     ",
"                   % 25%52      ",
"                                ",
"                                ",
"                                "};

