/* XPM */
static const char * editneuron[] = {
"32 32 68 1",
" 	c None",
".	c #05C605",
"+	c #000000",
"@	c #350D00",
"#	c #8D1D01",
"$	c #8E2101",
"%	c #8E2201",
"&	c #8D2001",
"*	c #891B02",
"=	c #982902",
"-	c #9D3602",
";	c #A13D02",
">	c #371000",
",	c #972C02",
"'	c #A84602",
")	c #B05203",
"!	c #B35503",
"~	c #8F2302",
"{	c #AB4B03",
"]	c #B95E03",
"^	c #C16903",
"/	c #C36C03",
"(	c #C87403",
"_	c #D07E03",
":	c #D28103",
"<	c #861702",
"[	c #9E3702",
"}	c #0C0C0C",
"|	c #DD9104",
"1	c #DF9304",
"2	c #EAA304",
"3	c #EEA804",
"4	c #D78804",
"5	c #902302",
"6	c #F3AF04",
"7	c #F7B604",
"8	c #DB8D04",
"9	c #972B01",
"0	c #8E2102",
"a	c #F9B804",
"b	c #F9B704",
"c	c #8E2202",
"d	c #FDBE04",
"e	c #FFBF04",
"f	c #D18003",
"g	c #B25503",
"h	c #A03B02",
"i	c #8F2202",
"j	c #FDBD04",
"k	c #F2AE04",
"l	c #E9A104",
"m	c #CD7A03",
"n	c #BE6503",
"o	c #AD4D03",
"p	c #9B2C02",
"q	c #F0AB04",
"r	c #E39904",
"s	c #C97403",
"t	c #E79E04",
"u	c #952A02",
"v	c #972702",
"w	c #992E02",
"x	c #A03602",
"y	c #A33902",
"z	c #9E3802",
"A	c #992A02",
"B	c #9B3102",
"C	c #9E3402",
"       ...             ..       ",
"..      ...            ..       ",
"....     ...          ..        ",
" ....     ..          ..     ...",
"   ..      ..        ..    .....",
"   ..      ..++++++  ..    ..   ",
"   ..     ++@#$%%&*@+..  ...    ",
"   ...   +=-;;;;;;;;->+  ..     ",
"    ... +,')!!!!!!!!)'~+..      ",
"     ..+,{]^////////^]{~+.      ",
"       >'](_::::::::_(]'<+      ",
"      +[}^_|1}}}1111}_}}}+      ",
"      @;}/:12}2}2223}4}]'>      ",
"     +5;}/:12}6}6673}8}}}9+     ",
"     +0;}/:}2}}}a}b2}1}}}-+     ",
"     +c;!/}}26adeda621f/gh+     ",
"     +c;!/:126aeeda621f/gh+     ",
"     +i;!/:126jddjbkl|_^)-+     ",
"     +5;!/:12}}}ab7}}}mnop+     ",
"      @;!/:13qk}6kq}r}s]'>      ",
"      +[)^}}}t}22lt}r}]'u+      ",
"      +v'](_4}}}1}8}}}]'>       ",
"       +w{]^sm_ff_ms^]!x+..     ",
"       .+w')]n^//^n])'y+....    ",
"       ..+>z'o)gg)o'[A+    ..   ",
"      ..   +>B[hh[C>++      ..  ",
"      ..   ..++++++..       ..  ",
"     ..   ...      ..        .. ",
"  .....   ..        ..       .. ",
".....    ...         ...      ..",
"..      ...           ...     ..",
"        ..             ..       "};

