/* XPM */
static const char * isoselneuron_xpm[] = {
"28 20 12 1",
" 	c None",
".	c #FF77FD",
"+	c #FF8AFD",
"@	c #FF9FFE",
"#	c #FFB1FE",
"$	c #FFC3FE",
"%	c #FFD1FE",
"&	c #FFDDFE",
"*	c #FFE8FE",
"=	c #FFF1FF",
"-	c #FFF7FF",
";	c #FFFBFF",
"...........................+",
".+++++++++++++++++++++++++@+",
".+@@@@@@@@@@@@@@@@@@@@@@@#@+",
".+@#####################$#@+",
".+@#$$$$$$$$$$$$$$$$$$$%$#@+",
".+@#$%%%%%%%%%%%%%%%%%&%$#@+",
".+@#$%&&&&&&&&&&&&&&&*&%$#@+",
".+@#$%&*************=*&%$#@+",
".+@#$%&*===========-=*&%$#@+",
".+@#$%&*=---------;-=*&%$#@+",
".+@#$%&*=;;;;;;;;;;-=*&%$#@+",
".+@#$%&*------------=*&%$#@+",
".+@#$%&==============*&%$#@+",
".+@#$%****************&%$#@+",
".+@#$&&&&&&&&&&&&&&&&&&%$#@+",
".+@#%%%%%%%%%%%%%%%%%%%%$#@+",
".+@$$$$$$$$$$$$$$$$$$$$$$#@+",
".+########################@+",
".@@@@@@@@@@@@@@@@@@@@@@@@@@+",
"++++++++++++++++++++++++++++"};
