/* XPM */
static const char * lateral_xpm[] = {
"21 440 2 1",
" 	c None",
".	c #000000",
"                     ",
"                     ",
"       .......       ",
"       ..            ",
"       ..            ",
"       ..            ",
"       .......       ",
"       .......       ",
"       ..            ",
"       ..            ",
"       ..            ",
"       ........      ",
"                     ",
"                     ",
"           ..        ",
"        ......       ",
"        ..  ...      ",
"        ..   ..      ",
"        ..   ..      ",
"        ..   ..      ",
"        ..   ..      ",
"        ..   ..      ",
"                     ",
"                     ",
"          ..         ",
"          ..         ",
"         ....        ",
"          ..         ",
"          ..         ",
"          ..         ",
"          ..         ",
"          ..         ",
"          ...        ",
"           ..        ",
"                     ",
"             .       ",
"          ....       ",
"          ...        ",
"          ..         ",
"          ..         ",
"          ..         ",
"          ..         ",
"          ..         ",
"                     ",
"                     ",
"          ..         ",
"        ......       ",
"        ..  ..       ",
"            ..       ",
"        ......       ",
"       ...  ..       ",
"       ..   ..       ",
"        ......       ",
"         ..          ",
"                     ",
"             ..      ",
"             ..      ",
"          .. ..      ",
"        .......      ",
"        ..  ...      ",
"       ..    ..      ",
"       ..    ..      ",
"       ..    ..      ",
"        ..  ...      ",
"        .......      ",
"          ..         ",
"                     ",
"          ..         ",
"        ......       ",
"        ..  ..       ",
"            ..       ",
"        ......       ",
"       ...  ..       ",
"       ..   ..       ",
"        ......       ",
"         ..          ",
"                     ",
"                     ",
"                     ",
"                     ",
"                     ",
"                     ",
"                     ",
"                     ",
"                     ",
"                     ",
"                     ",
"                     ",
"                     ",
"                     ",
"                     ",
"                     ",
"                     ",
"                     ",
"                     ",
"                     ",
"                     ",
"                     ",
"                     ",
"                     ",
"                     ",
"                     ",
"                     ",
"                     ",
"                     ",
"                     ",
"                     ",
"                     ",
"                     ",
"                     ",
"                     ",
"                     ",
"                     ",
"                     ",
"                     ",
"                     ",
"                     ",
"                     ",
"                     ",
"                     ",
"                     ",
"                     ",
"          ....       ",
"        ........     ",
"       ...    ...    ",
"       ..      ..    ",
"       ..      ..    ",
"       ..      ..    ",
"       ..      ..    ",
"       ...    ...    ",
"         .......     ",
"          ....       ",
"                     ",
"                     ",
"                     ",
"                     ",
"                     ",
"                     ",
"                     ",
"                     ",
"                     ",
"                     ",
"                     ",
"                     ",
"                     ",
"                     ",
"                     ",
"                     ",
"                     ",
"                     ",
"                     ",
"                     ",
"                     ",
"                     ",
"                     ",
"                     ",
"                     ",
"                     ",
"          ...        ",
"         .....       ",
"        ..   ..      ",
"        ..           ",
"        ..           ",
"        ..   ..      ",
"         .....       ",
"          ...        ",
"                     ",
"                     ",
"                     ",
"                     ",
"                     ",
"                     ",
"                     ",
"                     ",
"                     ",
"                     ",
"                     ",
"                     ",
"                     ",
"                     ",
"                     ",
"                     ",
"                     ",
"                     ",
"                     ",
"                     ",
"                     ",
"                     ",
"                     ",
"                     ",
"                     ",
"                     ",
"                     ",
"        ..   ..      ",
"        ..   ..      ",
"        ..   ..      ",
"        ..   ..      ",
"        ..   ..      ",
"        ..   ..      ",
"         ......      ",
"                     ",
"                     ",
"                     ",
"                     ",
"                     ",
"                     ",
"                     ",
"                     ",
"                     ",
"                     ",
"                     ",
"                     ",
"                     ",
"                     ",
"                     ",
"                     ",
"                     ",
"                     ",
"                     ",
"                     ",
"                     ",
"                     ",
"                     ",
"                     ",
"                     ",
"                     ",
"                     ",
"          ..         ",
"          ..         ",
"          ..         ",
"          ..         ",
"          ..         ",
"          ..         ",
"          ..         ",
"          ..         ",
"          ..         ",
"          ..         ",
"                     ",
"                     ",
"                     ",
"                     ",
"                     ",
"                     ",
"                     ",
"                     ",
"                     ",
"                     ",
"                     ",
"                     ",
"                     ",
"                     ",
"                     ",
"                     ",
"                     ",
"                     ",
"                     ",
"                     ",
"                     ",
"                     ",
"                     ",
"                     ",
"                     ",
"                     ",
"                     ",
"                     ",
"                     ",
"                     ",
"          ..         ",
"          ..         ",
"         .....       ",
"          ..         ",
"          ..         ",
"          ..         ",
"          ..         ",
"          ....       ",
"          ...        ",
"                     ",
"                     ",
"                     ",
"                     ",
"                     ",
"                     ",
"                     ",
"                     ",
"                     ",
"                     ",
"                     ",
"                     ",
"                     ",
"                     ",
"                     ",
"                     ",
"                     ",
"                     ",
"                     ",
"                     ",
"                     ",
"                     ",
"                     ",
"                     ",
"                     ",
"                     ",
"                     ",
"                     ",
"         ....        ",
"        ..  ..       ",
"            ..       ",
"         ......      ",
"        ..   ..      ",
"        .......      ",
"         .....       ",
"                     ",
"                     ",
"                     ",
"                     ",
"                     ",
"                     ",
"                     ",
"                     ",
"                     ",
"                     ",
"                     ",
"                     ",
"                     ",
"                     ",
"                     ",
"                     ",
"                     ",
"                     ",
"                     ",
"                     ",
"                     ",
"                     ",
"                     ",
"                     ",
"                     ",
"                     ",
"                     ",
"                     ",
"                     ",
"                     ",
"                     ",
"                     ",
"                     ",
"                     ",
"                     ",
"                     ",
"                     ",
"                     ",
"                     ",
"                     ",
"                     ",
"                     ",
"                     ",
"                     ",
"                     ",
"                     ",
"                     ",
"                     ",
"                     ",
"        .....        ",
"       ..   ..       ",
"       ..   ..       ",
"       ..            ",
"       .....         ",
"        ......       ",
"            ...      ",
"       .     ..      ",
"       ..   ..       ",
"       .......       ",
"         ...         ",
"                     ",
"                     ",
"          ..         ",
"        ......       ",
"        ..  ..       ",
"            ..       ",
"        ......       ",
"       ...  ..       ",
"       ..   ..       ",
"        ......       ",
"         ..          ",
"                     ",
"                     ",
"          ..         ",
"          ..         ",
"          ..         ",
"          ..         ",
"          ..         ",
"          ..         ",
"          ..         ",
"          ..         ",
"          ..         ",
"          ..         ",
"                     ",
"                     ",
"                     ",
"                     ",
"          ..         ",
"                     ",
"                     ",
"          ..         ",
"          ..         ",
"          ..         ",
"          ..         ",
"          ..         ",
"          ..         ",
"          ..         ",
"                     ",
"                     ",
"                     ",
"            ..       ",
"            ..       ",
"         .. ..       ",
"       .......       ",
"       ..  ...       ",
"      ..    ..       ",
"      ..    ..       ",
"      ..    ..       ",
"       ..  ...       ",
"       .......       ",
"         ..          ",
"                     ",
"                     ",
"          ..         ",
"        ......       ",
"        ..  ..       ",
"            ..       ",
"        ......       ",
"       ...  ..       ",
"       ..   ..       ",
"        ......       ",
"         ..          ",
"                     ",
"                     ",
"                     ",
"                     ",
"                     ",
"                     ",
"                     "};
