/* XPM */
static char * netview_redim_xpm[] = {
"21 13 2 1",
" 	c None",
".	c #FF0000",
"                     ",
"                 .   ",
"                .    ",
"               .     ",
"              .      ",
"             .   .   ",
"            .   .    ",
"           .   .     ",
"          .   .      ",
"         .   .   .   ",
"                     ",
"                     ",
"                     "};
