/* XPM */
static char * netview_mover_xpm[] = {
"21 13 2 1",
" 	c None",
".	c #FF0000",
"                    .",
"                    .",
"                    .",
"                    .",
"       .     .      .",
"     ..       ..    .",
"    .           .   .",
"     ..       ..    .",
"       ..   ..      .",
"                    .",
"                    .",
"                    .",
"....................."};
