/* XPM */
static const char * neuronoutput_xpm[] = {
"21 21 47 1",
" 	c None",
".	c #BC9300",
"+	c #BC9301",
"@	c #C19A0C",
"#	c #C49F12",
"$	c #C49F13",
"%	c #C5A014",
"&	c #C29C0E",
"*	c #CDAD27",
"=	c #CEAE28",
"-	c #C5A015",
";	c #D2B330",
">	c #D7BB3B",
",	c #DAC042",
"'	c #DFC74D",
")	c #E7D15D",
"!	c #E7D25E",
"~	c #E0C74E",
"{	c #D8BC3C",
"]	c #EDDB6A",
"^	c #EFDE70",
"/	c #EAD663",
"(	c #E3CC55",
"_	c #DBC044",
":	c #D2B431",
"<	c #C39F11",
"[	c #F2E275",
"}	c #F5E67B",
"|	c #F1E073",
"1	c #EBD867",
"2	c #E5CF59",
"3	c #DDC449",
"4	c #D5B837",
"5	c #CAA920",
"6	c #F6E77D",
"7	c #F8EA82",
"8	c #F5E77D",
"9	c #F2E175",
"0	c #ECDA6A",
"a	c #E6D15C",
"b	c #DFC64C",
"c	c #D7BA3A",
"d	c #CDAC26",
"e	c #F8EC84",
"f	c #EDDA6A",
"g	c #DBC043",
"h	c #C8A51B",
"                     ",
"       .......       ",
"     .+@#$%$#@+.     ",
"    .&*=======*&.    ",
"   .-;>>>>>>>>>;-.   ",
"  .&;,''''''''',;&.  ",
"  +*>'))))))))!~{=+  ",
" .@=>')]]]]]]^/(_:<. ",
" .#=>')][[[[}|12345. ",
" .$=>')][667890abcd. ",
" .%=>')][6e76[f)'>=. ",
" .$=>')][777890abcd. ",
" .#=>')]}868}|12345. ",
" .@=>')^|9[9|^/(_:<. ",
"  +*>'!/10f01/!~{=+  ",
"  .&;,~(2a)a2(~g;&.  ",
"   .-;{_3b'b3_{;h.   ",
"    .&=:4c>c4:=&.    ",
"     .+<5d=d5<+.     ",
"       .......       ",
"                     "};

