/* XPM */
static const char * neuronoutputsel_xpm[] = {
"21 21 44 1",
" 	c None",
".	c #FEE741",
"+	c #FDE742",
"@	c #FDE94C",
"#	c #FDEB53",
"$	c #FDEB58",
"%	c #FDEC5A",
"&	c #FDE94E",
"*	c #FDF072",
"=	c #FDF076",
"-	c #FDF281",
";	c #FDF592",
">	c #FDF69B",
",	c #FDF8A9",
"'	c #FDFABD",
")	c #FDFBBE",
"!	c #FDF8AB",
"~	c #FDF593",
"{	c #FDF073",
"]	c #FDFCCD",
"^	c #FDFDD3",
"/	c #FDFCC5",
"(	c #FDF9B3",
"_	c #FDF69D",
":	c #FDF283",
"<	c #FDEA51",
"[	c #FDFED8",
"}	c #FDFEDE",
"|	c #FDFDD5",
"1	c #FDFCC9",
"2	c #FDFAB9",
"3	c #FDF7A4",
"4	c #FDF38C",
"5	c #FDEE62",
"6	c #FDFEE0",
"7	c #FDFFE4",
"8	c #FDFDD7",
"9	c #FDFCCC",
"0	c #FDFABC",
"a	c #FDF8A8",
"b	c #FDF591",
"c	c #FDF071",
"d	c #FDFFE5",
"e	c #FDEB5A",
"                     ",
"       .......       ",
"     .+@#$%$#@+.     ",
"    .&*=======*&.    ",
"   .#-;;;;;;;;;-#.   ",
"  .&->,,,,,,,,,>-&.  ",
"  +*;,'''''''')!~{+  ",
" .@=;,']]]]]]^/(_:<. ",
" .#=;,'][[[[}|12345. ",
" .$=;,'][6676890abc. ",
" .%=;,'][6dd6[]',;=. ",
" .$=;,'][7d76890abc. ",
" .#=;,']}666}|12345. ",
" .@=;,'^|8[8|^/(_:<. ",
"  +*;,)/19]91/)!~{+  ",
"  .&->!(20'02(!>-&.  ",
"   .#-~_3a,a3_~-e.   ",
"    .&{:4b;b4:{&.    ",
"     .+<5c=c5<+.     ",
"       .......       ",
"                     "};

