/* XPM */
static const char * neuronhidden_xpm[] = {
"21 21 49 1",
" 	c None",
".	c #5D5FB6",
"+	c #514FB2",
"@	c #4C49B0",
"#	c #5B5BB5",
"$	c #4D4AB0",
"%	c #5656B4",
"&	c #5C5DB7",
"*	c #6062BA",
"=	c #6164BB",
"-	c #5858B6",
";	c #747EC4",
">	c #7781C6",
",	c #5C5EB8",
"'	c #7F8CCA",
")	c #8C9BCF",
"!	c #94A6D3",
"~	c #A0B3D8",
"{	c #AFC7DF",
"]	c #B0C9DF",
"^	c #A1B5D9",
"/	c #8D9DD0",
"(	c #757FC4",
"_	c #BDD8E5",
":	c #C2DEE9",
"<	c #B6CFE3",
"[	c #A7BDDB",
"}	c #96A7D3",
"|	c #818DCA",
"1	c #5A5BB7",
"2	c #C7E5EA",
"3	c #CDEAEC",
"4	c #C5E1E9",
"5	c #B9D4E5",
"6	c #ACC3DE",
"7	c #9BAED7",
"8	c #8796CD",
"9	c #686CBE",
"0	c #CFECED",
"a	c #D2F1F0",
"b	c #CEECED",
"c	c #C7E4EA",
"d	c #BCD7E5",
"e	c #AEC7DF",
"f	c #9DB2D8",
"g	c #8A9ACF",
"h	c #737BC3",
"i	c #D4F2F0",
"j	c #D3F1F0",
"                     ",
"       .+@@@+.       ",
"     #$%&*=*&%$#     ",
"    +-;>>>>>>>;-+    ",
"   +,')))))))))',+   ",
"  #-'!~~~~~~~~~!'-#  ",
"  $;)~{{{{{{{{]^/($  ",
" .%>)~{______:<[}|1. ",
" +&>)~{_22223456789+ ",
" @*>)~{_200abcdefgh@ ",
" @=>)~{_20ij0c_{~)>@ ",
" @*>)~{_2ajabcdefgh@ ",
" +&>)~{_3b0b3456789+ ",
" .%>)~{:4ccc4:<[}|1. ",
"  $;)~]<5d_d5<]^/($  ",
"  #-'!^[6e{e6[^!'-#  ",
"   +,'/}7f~f7}/'=+   ",
"    +-(|8g)g8|(-+    ",
"     #$19h>h91$#     ",
"       .+@@@+.       ",
"                     "};
