/* XPM */
static const char * neuroninput_xpm[] = {
"21 21 47 1",
" 	c None",
".	c #CD2217",
"+	c #CD2318",
"@	c #CE2F20",
"#	c #CF3726",
"$	c #CF3D29",
"%	c #D03F2B",
"&	c #CE3122",
"*	c #D2573C",
"=	c #D35B3F",
"-	c #CF3826",
";	c #D46646",
">	c #D67652",
",	c #D78058",
"'	c #D88F63",
")	c #DBA572",
"!	c #DBA673",
"~	c #D89064",
"{	c #D67753",
"]	c #D2593D",
"^	c #DDB880",
"/	c #DDBF85",
"(	c #DCAE79",
"_	c #D9996A",
":	c #D7825A",
"<	c #D46747",
"[	c #CE3524",
"}	c #DEC78A",
"|	c #DFD090",
"1	c #DEC488",
"2	c #DCB47D",
"3	c #DAA06F",
"4	c #D8895F",
"5	c #D56F4D",
"6	c #D04731",
"7	c #E0D292",
"8	c #E0D997",
"9	c #DFD292",
"0	c #DEC68A",
"a	c #DDB77F",
"b	c #DAA471",
"c	c #D88D62",
"d	c #D57450",
"e	c #D1553A",
"f	c #E0DC98",
"g	c #D67651",
"h	c #D78059",
"                     ",
"       .......       ",
"     .+@#$%$#@+.     ",
"    .&*=======*&.    ",
"   .-;>>>>>>>>>;-.   ",
"  .&;,''''''''',;&.  ",
"  +*>'))))))))!~{]+  ",
" .@=>')^^^^^^/(_:<[. ",
" .#=>')^}}}}|123456. ",
" .$=>')^}77890abcde. ",
" .%=>')^}7f87}^)'g=. ",
" .$=>')^}88890abcde. ",
" .#=>')^|979|123456. ",
" .@=>')/10}01/(_:<[. ",
"  +*>'!(2a^a2(!~{]+  ",
"  .&;,~_3b)b3_~h;&.  ",
"   .-;{:4c'c4:{;%.   ",
"    .&]<5dgd5<]&.    ",
"     .+[6e=e6[+.     ",
"       .......       ",
"                     "};

