/* XPM */
static const char * neuronhiddensel_xpm[] = {
"21 21 46 1",
" 	c None",
".	c #539CEE",
"+	c #549DEE",
"@	c #62A6F0",
"#	c #6CAEF1",
"$	c #73B1F2",
"%	c #76B4F2",
"&	c #64A9F0",
"*	c #95C6F5",
"=	c #9BC9F5",
"-	c #A8D0F7",
";	c #BBDAF9",
">	c #C5DFFA",
",	c #D3E7FB",
"'	c #E5F2FD",
")	c #E6F2FD",
"!	c #D4E8FB",
"~	c #BCDBF9",
"{	c #98C7F5",
"]	c #F1F8FE",
"^	c #F5FBFE",
"/	c #EBF5FD",
"(	c #DCECFC",
"_	c #C6E1FA",
":	c #AAD1F7",
"<	c #68ABF1",
"[	c #F9FCFF",
"}	c #FCFEFF",
"|	c #F7FCFE",
"1	c #EEF7FD",
"2	c #E1F0FC",
"3	c #CDE4FB",
"4	c #B3D6F8",
"5	c #82BAF3",
"6	c #FDFEFF",
"7	c #FEFFFF",
"8	c #F8FCFF",
"9	c #F0F8FE",
"0	c #E4F1FD",
"a	c #D1E7FB",
"b	c #B8D9F8",
"c	c #94C5F5",
"d	c #FFFFFF",
"e	c #E4F2FD",
"f	c #BADAF9",
"g	c #C5E0FA",
"                     ",
"       .......       ",
"     ++@#$%$#@++     ",
"    +&*=======*&+    ",
"   +#-;;;;;;;;;-#+   ",
"  +&->,,,,,,,,,>-&+  ",
"  +*;,'''''''')!~{+  ",
" .@=;,']]]]]]^/(_:<+ ",
" .#=;,'][[[[}|12345+ ",
" .$=;,'][667}890abc. ",
" .%=;,'][6d76[]e,f=. ",
" .$=;,'][777}890abc. ",
" .#=;,']}}6}}|12345+ ",
" .@=;,'^|8[8|^/(_:<+ ",
"  +*;,)/19]91/)!~{+  ",
"  +&->!(20e02(!g-&+  ",
"   +#-~_3a,a3_~-%.   ",
"    +&{:4bfb4:{&+    ",
"     ++<5c=c5<++     ",
"       ++...++       ",
"                     "};


