/* XPM */
static const char * neuroninputsel_xpm[] = {
"21 21 45 1",
" 	c None",
".	c #FF4032",
"+	c #FF4233",
"@	c #FF503E",
"#	c #FF5C47",
"$	c #FF654E",
"%	c #FF6750",
"&	c #FF5442",
"*	c #FF8F6D",
"=	c #FF9573",
"-	c #FF5E49",
";	c #FFA683",
">	c #FFBC9A",
",	c #FFC7A6",
"'	c #FFD7B7",
")	c #FFEACD",
"!	c #FFEBCE",
"~	c #FFD9B8",
"{	c #FFBD9B",
"]	c #FF9270",
"^	c #FFF6DD",
"/	c #FFF9E3",
"(	c #FFF0D5",
"_	c #FFE1C3",
":	c #FFC9A7",
"<	c #FFA986",
"[	c #FF5945",
"}	c #FFFCE8",
"|	c #FFFEEE",
"1	c #FFFAE6",
"2	c #FFF3DA",
"3	c #FFE6C9",
"4	c #FFD1B1",
"5	c #FFB391",
"6	c #FF7559",
"7	c #FFFEEF",
"8	c #FFFFF2",
"9	c #FFFBE7",
"0	c #FFF5DC",
"a	c #FFE9CC",
"b	c #FFD6B6",
"c	c #FFB997",
"d	c #FF8C6C",
"e	c #FFFFF4",
"f	c #FFC8A6",
"                     ",
"       .......       ",
"     .+@#$%$#@+.     ",
"    .&*=======*&.    ",
"   .-;>>>>>>>>>;-.   ",
"  .&;,''''''''',;&.  ",
"  +*>'))))))))!~{]+  ",
" .@=>')^^^^^^/(_:<[. ",
" .#=>')^}}}}|123456. ",
" .$=>')^}778790abcd. ",
" .%=>')^}7e87}^)'>=. ",
" .$=>')^}888790abcd. ",
" .#=>')^|777|123456. ",
" .@=>')/19}91/(_:<[. ",
"  +*>'!(20^02(!~{]+  ",
"  .&;,~_3a)a3_~f;&.  ",
"   .-;{:4b'b4:{;%.   ",
"    .&]<5c>c5<]&.    ",
"     .+[6d=d6[+.     ",
"       .......       ",
"                     "};

