/* XPM */
static const char * pointer_xpm[] = {
"22 22 6 1",
" 	c None",
".	c #000000",
"+	c #FFFFFF",
"@	c #CCC7C7",
"#	c #AFAEAE",
"$	c #FCFCFC",
"                      ",
"                      ",
"   ..                 ",
"   .+..               ",
"   .+@#..             ",
"   ..+@#...           ",
"    .++@##...         ",
"    .+++@@##...       ",
"    ..+++@...         ",
"     .++...#          ",
"     .++.$..          ",
"     .+...$..         ",
"     ... .$$..        ",
"      .  ..$$.        ",
"      .   ..$..       ",
"           .$$..      ",
"           ..$$..     ",
"            ..$$.     ",
"             .$.      ",
"             ..       ",
"                      ",
"                      "};

